<svg width="441" height="440" viewBox="0 0 441 440" fill="none" xmlns="http://www.w3.org/2000/svg">
<g clip-path="url(#clip0_5217_12743)">
<path d="M274.654 393.763L269.564 392.306C264.073 390.722 260.102 385.97 259.532 380.289L256.808 353.488H185.212L182.488 380.289C181.918 385.97 177.926 390.722 172.456 392.306L167.366 393.763C166.648 393.974 166.099 394.566 166.015 395.305C165.888 396.403 166.733 397.332 167.81 397.332H274.231C275.308 397.332 276.153 396.403 276.026 395.305C275.921 394.566 275.372 393.974 274.654 393.763Z" fill="#2F4858"/>
<path d="M397.294 121.11V341.493C397.294 347.638 392.309 352.601 386.185 352.601H55.8325C49.6867 352.601 44.7236 347.638 44.7236 341.493V121.11C44.7236 114.964 49.7078 110.001 55.8325 110.001H386.164C392.309 110.001 397.294 114.986 397.294 121.11Z" fill="white"/>
<path d="M390.62 113.106C393.408 113.106 395.668 115.366 395.668 118.153V344.449C395.668 347.237 393.408 349.497 390.62 349.497H51.398C48.6102 349.497 46.3504 347.237 46.3504 344.449V118.153C46.3504 115.366 48.6102 113.106 51.398 113.106H390.62ZM390.62 106.749H51.398C45.1043 106.749 39.9934 111.86 39.9934 118.153V344.449C39.9934 350.743 45.1043 355.854 51.398 355.854H390.62C396.914 355.854 402.025 350.743 402.025 344.449V118.153C402.025 111.86 396.914 106.749 390.62 106.749Z" fill="#2F4858"/>
<path d="M402.025 322.823V344.471C402.025 350.764 396.914 355.875 390.62 355.875H51.398C45.1043 355.875 39.9934 350.764 39.9934 344.471V322.823H402.025Z" fill="#2F4858"/>
<path d="M221.009 345.759C224.555 345.759 227.43 342.884 227.43 339.338C227.43 335.792 224.555 332.918 221.009 332.918C217.464 332.918 214.589 335.792 214.589 339.338C214.589 342.884 217.464 345.759 221.009 345.759Z" fill="white"/>
<path d="M221.01 111.48C221.827 111.48 222.488 110.818 222.488 110.001C222.488 109.185 221.827 108.523 221.01 108.523C220.194 108.523 219.532 109.185 219.532 110.001C219.532 110.818 220.194 111.48 221.01 111.48Z" fill="#F0F2F5"/>
<path d="M390.62 113.866C392.985 113.866 394.907 115.788 394.907 118.153V322.062H47.1104V118.153C47.1104 115.788 49.0323 113.866 51.3977 113.866H390.62ZM390.62 113.106H51.3977C48.6099 113.106 46.3501 115.365 46.3501 118.153V322.823H395.668V118.153C395.668 115.365 393.408 113.106 390.62 113.106Z" fill="#1B1A2E"/>
<path d="M167.787 393.722H274.187C275.18 393.722 275.982 394.524 275.982 395.517C275.982 396.509 275.18 397.312 274.187 397.312H167.787C166.794 397.312 165.992 396.509 165.992 395.517C165.992 394.524 166.794 393.722 167.787 393.722Z" fill="#1F4168"/>
<g opacity="0.4">
<path d="M184.958 355.875H257.039L258.264 367.85L184.958 355.875Z" fill="#223948"/>
</g>
<path d="M48.5469 276.128H364.664C367.811 276.128 370.388 273.572 370.388 270.405V49.642C370.388 46.4952 367.832 43.9186 364.664 43.9186H48.5469C45.4001 43.9186 42.8235 46.474 42.8235 49.642V270.405C42.8446 273.572 45.4001 276.128 48.5469 276.128Z" fill="#F0F2F5"/>
<path d="M42.8446 60.0537H370.388V49.6629C370.388 46.516 367.832 43.9395 364.664 43.9395H48.5469C45.4001 43.9395 42.8235 46.4949 42.8235 49.6629V60.0537H42.8446Z" fill="#E1E6EB"/>
<path d="M86.8998 54.1611H49.4337C48.5889 54.1611 47.9131 53.4853 47.9131 52.6405V49.9161C47.9131 49.0713 48.5889 48.3955 49.4337 48.3955H86.8998C87.7446 48.3955 88.4204 49.0713 88.4204 49.9161V52.6405C88.4204 53.4853 87.7446 54.1611 86.8998 54.1611Z" fill="#F0F2F5"/>
<path d="M363.377 54.1609H358.203C357.358 54.1609 356.683 53.4851 356.683 52.6403V49.9159C356.683 49.0711 357.358 48.3953 358.203 48.3953H363.377C364.222 48.3953 364.898 49.0711 364.898 49.9159V52.6403C364.919 53.4851 364.222 54.1609 363.377 54.1609Z" fill="#F0F2F5"/>
<path d="M351.127 54.1611H345.953C345.108 54.1611 344.432 53.4853 344.432 52.6405V49.9161C344.432 49.0713 345.108 48.3955 345.953 48.3955H351.127C351.972 48.3955 352.648 49.0713 352.648 49.9161V52.6405C352.669 53.4853 351.972 54.1611 351.127 54.1611Z" fill="#F0F2F5"/>
<path d="M338.877 54.1611H333.703C332.858 54.1611 332.182 53.4853 332.182 52.6405V49.9161C332.182 49.0713 332.858 48.3955 333.703 48.3955H338.877C339.722 48.3955 340.398 49.0713 340.398 49.9161V52.6405C340.419 53.4853 339.722 54.1611 338.877 54.1611Z" fill="#F0F2F5"/>
<path d="M29.2644 302.57H345.382C348.529 302.57 351.105 300.014 351.105 296.846V76.0836C351.105 72.9368 348.55 70.3602 345.382 70.3602H29.2644C26.1176 70.3602 23.541 72.9157 23.541 76.0836V296.846C23.541 300.014 26.0965 302.57 29.2644 302.57Z" fill="#F0F2F5"/>
<path d="M23.541 86.4744H351.084V76.0836C351.084 72.9368 348.529 70.3602 345.361 70.3602H29.2644C26.1176 70.3602 23.541 72.9157 23.541 76.0836V86.4744Z" fill="#1F4168"/>
<path d="M345.382 70.4867C348.465 70.4867 351 72.9999 351 76.1045V296.867C351 299.951 348.486 302.485 345.382 302.485H29.2644C26.181 302.485 23.6466 299.972 23.6466 296.867V76.0834C23.6466 72.9999 26.1598 70.4656 29.2644 70.4656H345.382M345.382 70.3811H29.2644C26.1176 70.3811 23.541 72.9366 23.541 76.1045V296.867C23.541 300.014 26.0965 302.59 29.2644 302.59H345.382C348.529 302.59 351.105 300.035 351.105 296.867V76.0834C351.084 72.9366 348.529 70.3811 345.382 70.3811Z" fill="#1F4168"/>
<path d="M67.5975 81.3211H30.1524C29.3077 81.3211 28.6318 80.6452 28.6318 79.8005V77.076C28.6318 76.2312 29.3077 75.5554 30.1524 75.5554H67.5975C68.4422 75.5554 69.1181 76.2312 69.1181 77.076V79.8005C69.1392 80.6452 68.4422 81.3211 67.5975 81.3211Z" fill="#F0F2F5"/>
<path d="M344.095 81.3209H338.921C338.076 81.3209 337.4 80.6451 337.4 79.8003V77.0759C337.4 76.2311 338.076 75.5553 338.921 75.5553H344.095C344.94 75.5553 345.616 76.2311 345.616 77.0759V79.8003C345.616 80.6451 344.94 81.3209 344.095 81.3209Z" fill="#F0F2F5"/>
<path d="M331.847 81.3209H326.672C325.828 81.3209 325.152 80.6451 325.152 79.8003V77.0759C325.152 76.2311 325.828 75.5553 326.672 75.5553H331.847C332.692 75.5553 333.367 76.2311 333.367 77.0759V79.8003C333.367 80.6451 332.692 81.3209 331.847 81.3209Z" fill="#F0F2F5"/>
<path d="M319.596 81.3211H314.421C313.576 81.3211 312.901 80.6452 312.901 79.8005V77.076C312.901 76.2312 313.576 75.5554 314.421 75.5554H319.596C320.44 75.5554 321.116 76.2312 321.116 77.076V79.8005C321.116 80.6452 320.44 81.3211 319.596 81.3211Z" fill="#F0F2F5"/>
<path d="M334.759 117.245H247.049C245.592 117.245 244.43 116.063 244.43 114.627V110.17C244.43 108.713 245.613 107.552 247.049 107.552H334.759C336.216 107.552 337.377 108.734 337.377 110.17V114.627C337.399 116.063 336.216 117.245 334.759 117.245Z" fill="#E1E6EB"/>
<path d="M334.759 134.057H211.421C209.964 134.057 208.802 132.874 208.802 131.438V126.982C208.802 125.525 209.985 124.363 211.421 124.363H334.759C336.217 124.363 337.378 125.546 337.378 126.982V131.438C337.399 132.895 336.217 134.057 334.759 134.057Z" fill="#E1E6EB"/>
<path d="M85.6344 277.29H18.1786C14.884 277.29 12.2229 274.629 12.2229 271.335V210.743C12.2229 207.448 14.884 204.787 18.1786 204.787H85.6344C88.9291 204.787 91.5901 207.448 91.5901 210.743V271.314C91.5901 274.608 88.9079 277.29 85.6344 277.29Z" fill="#E1E6EB"/>
<path d="M79.0655 270.152H11.6098C8.31511 270.152 5.65405 267.491 5.65405 264.196V203.604C5.65405 200.31 8.31511 197.648 11.6098 197.648H79.0655C82.3602 197.648 85.0213 200.31 85.0213 203.604V264.175C85.0213 267.47 82.3602 270.152 79.0655 270.152Z" fill="white"/>
<path d="M79.0647 270.257H11.6299C8.29303 270.257 5.5686 267.532 5.5686 264.195V203.603C5.5686 200.266 8.29303 197.542 11.6299 197.542H79.0858C82.4227 197.542 85.1471 200.266 85.1471 203.603V264.174C85.126 267.532 82.4016 270.257 79.0647 270.257ZM11.6299 197.774C8.39862 197.774 5.7798 200.393 5.7798 203.624V264.195C5.7798 267.427 8.39862 270.045 11.6299 270.045H79.0858C82.3171 270.045 84.9359 267.427 84.9359 264.195V203.603C84.9359 200.372 82.3171 197.753 79.0858 197.753H11.6299V197.774Z" fill="#1F4168"/>
<path d="M11.822 208.271H11.5264V259.127H11.822V208.271Z" fill="#E1E6EB"/>
<path d="M79.1709 208.271H75.9185V256.656H79.1709V208.271Z" fill="#E1E6EB"/>
<path d="M75.0105 227.173H71.7581V256.656H75.0105V227.173Z" fill="#E1E6EB"/>
<path d="M70.8296 239.338H67.5771V256.656H70.8296V239.338Z" fill="#E1E6EB"/>
<path d="M63.0561 228.229H59.8037V256.656H63.0561V228.229Z" fill="#E1E6EB"/>
<path d="M58.8969 218.282H55.6445V256.635H58.8969V218.282Z" fill="#E1E6EB"/>
<path d="M54.7143 231.756H51.4619V256.656H54.7143V231.756Z" fill="#E1E6EB"/>
<path d="M46.9636 217.923H43.7112V256.635H46.9636V217.923Z" fill="#E1E6EB"/>
<path d="M42.7832 243.415H39.5308V256.657H42.7832V243.415Z" fill="#E1E6EB"/>
<path d="M38.6203 225.167H35.3679V256.657H38.6203V225.167Z" fill="#E1E6EB"/>
<path d="M30.8496 232.453H27.5972V256.656H30.8496V232.453Z" fill="#E1E6EB"/>
<path d="M26.6675 227.173H23.415V256.656H26.6675V227.173Z" fill="#E1E6EB"/>
<path d="M22.5073 217.923H19.2549V256.635H22.5073V217.923Z" fill="#E1E6EB"/>
<path d="M79.1728 224.66H75.9204V256.656H79.1728V224.66Z" fill="#1F4168"/>
<path d="M75.0107 237.161H71.7583V256.655H75.0107V237.161Z" fill="#F9A21B"/>
<path d="M70.8298 245.188H67.5774V256.635H70.8298V245.188Z" fill="#F9A21B"/>
<path d="M63.0583 237.859H59.8059V256.655H63.0583V237.859Z" fill="#1F4168"/>
<path d="M58.8977 231.291H55.6453V256.656H58.8977V231.291Z" fill="#F9A21B"/>
<path d="M54.7151 240.182H51.4626V256.634H54.7151V240.182Z" fill="#F9A21B"/>
<path d="M46.9641 231.037H43.7117V256.634H46.9641V231.037Z" fill="#1F4168"/>
<path d="M42.7829 247.891H39.5305V256.655H42.7829V247.891Z" fill="#F9A21B"/>
<path d="M38.622 235.832H35.3696V256.655H38.622V235.832Z" fill="#F9A21B"/>
<path d="M30.8501 240.647H27.5977V256.635H30.8501V240.647Z" fill="#1F4168"/>
<path d="M26.6672 237.162H23.4148V256.655H26.6672V237.162Z" fill="#F9A21B"/>
<path d="M22.5083 231.038H19.2559V256.634H22.5083V231.038Z" fill="#F9A21B"/>
<path d="M79.1718 258.789H19.2556V259.127H79.1718V258.789Z" fill="#1F4168"/>
<path d="M13.8925 255.706H11.5271V256.636H13.8925V255.706Z" fill="#1F4168"/>
<path d="M13.8925 243.858H11.5271V244.788H13.8925V243.858Z" fill="#1F4168"/>
<path d="M13.8925 231.988H11.5271V232.918H13.8925V231.988Z" fill="#1F4168"/>
<path d="M13.8925 220.12H11.5271V221.049H13.8925V220.12Z" fill="#1F4168"/>
<path d="M13.8918 208.271H11.5264V209.201H13.8918V208.271Z" fill="#1F4168"/>
<path d="M332.48 277.29H223.165C217.843 277.29 213.513 272.982 213.513 267.638V169.454C213.513 164.132 217.822 159.802 223.165 159.802H332.48C337.802 159.802 342.131 164.11 342.131 169.454V267.638C342.131 272.961 337.802 277.29 332.48 277.29Z" fill="#E1E6EB"/>
<path d="M327.75 272.58H218.435C213.113 272.58 208.784 268.272 208.784 262.929V164.765C208.784 159.443 213.092 155.113 218.435 155.113H327.75C333.072 155.113 337.402 159.422 337.402 164.765V262.95C337.402 268.272 333.072 272.58 327.75 272.58Z" fill="white"/>
<path d="M327.748 272.685H218.433C213.048 272.685 208.676 268.314 208.676 262.928V164.764C208.676 159.379 213.048 155.007 218.433 155.007H327.748C333.134 155.007 337.505 159.379 337.505 164.764V262.949C337.505 268.314 333.134 272.685 327.748 272.685ZM218.433 155.218C213.174 155.218 208.887 159.506 208.887 164.764V262.949C208.887 268.208 213.174 272.495 218.433 272.495H327.748C333.007 272.495 337.294 268.208 337.294 262.949V164.764C337.294 159.506 333.007 155.218 327.748 155.218H218.433Z" fill="#1F4168"/>
<path d="M251.295 176.001H221.326V180.415H251.295V176.001Z" fill="#1F4168"/>
<path d="M274.314 260.859H221.325V265.273H274.314V260.859Z" fill="#E1E6EB"/>
<path d="M236.311 167.806H221.316V172.22H236.311V167.806Z" fill="#F9A21B"/>
<path d="M224.642 248.948H221.327V250.3H224.642V248.948Z" fill="#1F4168"/>
<path d="M224.642 237.543H221.327V238.895H224.642V237.543Z" fill="#1F4168"/>
<path d="M224.642 226.139H221.327V227.491H224.642V226.139Z" fill="#1F4168"/>
<path d="M224.642 214.735H221.327V216.086H224.642V214.735Z" fill="#1F4168"/>
<path d="M224.642 203.33H221.327V204.682H224.642V203.33Z" fill="#1F4168"/>
<path d="M224.642 191.925H221.327V193.277H224.642V191.925Z" fill="#1F4168"/>
<path d="M320.927 191.925H227.726V250.278H320.927V191.925Z" fill="#F0F2F5"/>
<path d="M227.726 250.299V239.866L244.242 237.036L254.717 224.343H263.968L277.653 198.408L287.621 217.522L297.315 215.093L301.687 217.86L310.473 211.439L320.927 224.343V250.299H227.726Z" fill="#E1E6EB"/>
<path d="M227.726 250.299V240.542L244.242 239.866L254.717 233.213H263.968L277.653 210.151L287.621 227.279L297.315 225.125L301.687 227.258L310.473 221.619L320.927 233.129V250.299H227.726Z" fill="#1F4168"/>
<path d="M227.726 234.776V234.565L244.2 233.889L254.675 227.237H262.299L275.794 201.703L291.338 222.464L297.273 213.72L301.708 215.896L310.536 215.642L310.557 215.684L321.011 229.919L320.842 230.046L310.43 215.874L301.666 216.107L297.336 213.995L291.338 222.823L275.837 202.105L262.426 227.448H254.738L244.263 234.101H244.242L227.726 234.776Z" fill="#F9A21B"/>
<path d="M324.855 256.847H221.221V191.925H221.432V256.636H324.855V256.847Z" fill="#1F4168"/>
<path d="M245.044 233.996C245.044 234.439 244.685 234.798 244.242 234.798C243.798 234.798 243.439 234.439 243.439 233.996C243.439 233.552 243.798 233.193 244.242 233.193C244.685 233.193 245.044 233.552 245.044 233.996Z" fill="#F9A21B"/>
<path d="M276.617 201.894C276.617 202.337 276.258 202.696 275.815 202.696C275.371 202.696 275.012 202.337 275.012 201.894C275.012 201.45 275.371 201.091 275.815 201.091C276.258 201.091 276.617 201.45 276.617 201.894Z" fill="#F9A21B"/>
<path d="M292.14 222.633C292.14 223.077 291.781 223.436 291.338 223.436C290.894 223.436 290.535 223.077 290.535 222.633C290.535 222.19 290.894 221.831 291.338 221.831C291.76 221.81 292.14 222.19 292.14 222.633Z" fill="#F9A21B"/>
<path d="M311.254 215.749C311.254 216.192 310.895 216.551 310.451 216.551C310.008 216.551 309.649 216.192 309.649 215.749C309.649 215.305 310.008 214.946 310.451 214.946C310.895 214.946 311.254 215.284 311.254 215.749Z" fill="#F9A21B"/>
<path d="M178.222 192.031H17.7351C14.6939 192.031 12.2229 189.56 12.2229 186.518V107.257C12.2229 104.215 14.6939 101.745 17.7351 101.745H178.222C181.264 101.745 183.735 104.215 183.735 107.257V186.539C183.735 189.581 181.285 192.031 178.222 192.031Z" fill="#E1E6EB"/>
<path d="M173.492 187.343H13.0046C9.96342 187.343 7.49243 184.872 7.49243 181.83V102.548C7.49243 99.5065 9.96342 97.0355 13.0046 97.0355H173.492C176.533 97.0355 179.004 99.5065 179.004 102.548V181.83C179.004 184.872 176.554 187.343 173.492 187.343Z" fill="white"/>
<path d="M173.491 187.448H13.0033C9.89873 187.448 7.3855 184.934 7.3855 181.83V102.547C7.3855 99.4425 9.89873 96.9293 13.0033 96.9293H173.491C176.595 96.9293 179.109 99.4425 179.109 102.547V181.83C179.109 184.934 176.595 187.448 173.491 187.448ZM13.0033 97.1405C10.0254 97.1405 7.59669 99.5693 7.59669 102.547V181.83C7.59669 184.808 10.0254 187.236 13.0033 187.236H173.491C176.469 187.236 178.897 184.808 178.897 181.83V102.547C178.897 99.5693 176.469 97.1405 173.491 97.1405H13.0033Z" fill="#1F4168"/>
<path d="M112.264 110.805H106.14V116.93H112.264V110.805Z" fill="#1F4168"/>
<path d="M112.264 121.407H106.14V127.532H112.264V121.407Z" fill="#F9A21B"/>
<path d="M163.035 110.805H116.361V116.93H163.035V110.805Z" fill="#F0F2F5"/>
<path d="M142.718 121.408H116.361V127.532H142.718V121.408Z" fill="#E1E6EB"/>
<path d="M89.5611 139.76H55.3052V105.504C74.2072 105.504 89.5611 120.836 89.5611 139.76Z" fill="#F9A21B"/>
<path d="M87.1087 142.189L87.0876 143.076V143.097C86.9397 149.116 85.2291 154.734 82.3568 159.591C76.4011 169.686 65.4189 176.445 52.8528 176.445C45.9467 176.445 39.5264 174.396 34.1409 170.89C24.7849 164.787 18.5969 154.206 18.5969 142.189C18.5969 123.266 33.9297 107.933 52.8528 107.933V142.189H87.1087Z" fill="#1F4168"/>
<path d="M87.11 142.189L87.0888 143.076V143.097C86.941 149.116 85.2303 154.734 82.3581 159.591C76.4023 169.686 65.4202 176.445 52.854 176.445C45.9479 176.445 39.5276 174.396 34.1421 170.89L52.854 142.189H87.11Z" fill="#112E4C"/>
<path d="M163.036 136.676H106.14V175.241H163.036V136.676Z" fill="#F0F2F5"/>
<path d="M131.547 152.917H128.273C128.273 149.221 125.253 146.201 121.557 146.201V142.928C127.069 142.928 131.547 147.405 131.547 152.917Z" fill="#E1E6EB"/>
<path d="M121.557 163.287C115.833 163.287 111.166 158.619 111.166 152.896C111.166 147.173 115.833 142.505 121.557 142.505V146.602C118.072 146.602 115.263 149.432 115.263 152.896C115.263 156.381 118.093 159.19 121.557 159.19C125.041 159.19 127.85 156.36 127.85 152.896H131.926C131.947 158.64 127.28 163.287 121.557 163.287Z" fill="#1F4168"/>
<path d="M121.557 157.269C123.96 157.269 125.908 155.321 125.908 152.918C125.908 150.515 123.96 148.567 121.557 148.567C119.154 148.567 117.206 150.515 117.206 152.918C117.206 155.321 119.154 157.269 121.557 157.269Z" fill="#E1E6EB"/>
<path d="M147.598 157.269C150.001 157.269 151.949 155.321 151.949 152.918C151.949 150.515 150.001 148.568 147.598 148.568C145.195 148.568 143.248 150.515 143.248 152.918C143.248 155.321 145.195 157.269 147.598 157.269Z" fill="#E1E6EB"/>
<path d="M147.598 162.886V159.612C151.294 159.612 154.314 156.592 154.314 152.896H157.587C157.587 158.408 153.11 162.886 147.598 162.886Z" fill="#E1E6EB"/>
<path d="M147.597 163.288C141.873 163.288 137.206 158.621 137.206 152.897C137.206 147.174 141.873 142.506 147.597 142.506C153.32 142.506 157.987 147.174 157.987 152.897H153.911C153.911 149.413 151.081 146.604 147.618 146.604C144.133 146.604 141.324 149.434 141.324 152.897C141.324 156.382 144.154 159.191 147.618 159.191V163.288H147.597Z" fill="#F9A21B"/>
<path d="M121.557 166.031H111.166V167.552H121.557V166.031Z" fill="#E1E6EB"/>
<path d="M129.054 168.863H111.166V170.384H129.054V168.863Z" fill="#E1E6EB"/>
<path d="M147.618 166.031H137.228V167.551H147.618V166.031Z" fill="#E1E6EB"/>
<path d="M155.114 168.864H137.226V170.384H155.114V168.864Z" fill="#E1E6EB"/>
<path d="M178.266 277.29H110.81C107.515 277.29 104.854 274.629 104.854 271.334V210.742C104.854 207.448 107.515 204.787 110.81 204.787H178.266C181.56 204.787 184.221 207.448 184.221 210.742V271.313C184.2 274.608 181.539 277.29 178.266 277.29Z" fill="#E1E6EB"/>
<path d="M173.523 272.57H106.067C102.773 272.57 100.112 269.909 100.112 266.615V206.044C100.112 202.749 102.773 200.088 106.067 200.088H173.523C176.818 200.088 179.479 202.749 179.479 206.044V266.615C179.458 269.909 176.797 272.57 173.523 272.57Z" fill="white"/>
<path d="M173.534 272.685H106.078C102.742 272.685 100.017 269.961 100.017 266.624V206.053C100.017 202.716 102.742 199.992 106.078 199.992H173.534C176.871 199.992 179.596 202.716 179.596 206.053V266.624C179.574 269.961 176.871 272.685 173.534 272.685ZM106.078 200.203C102.847 200.203 100.228 202.822 100.228 206.053V266.624C100.228 269.855 102.847 272.474 106.078 272.474H173.534C176.766 272.474 179.384 269.855 179.384 266.624V206.053C179.384 202.822 176.766 200.203 173.534 200.203H106.078Z" fill="#1F4168"/>
<path d="M132.499 250.932C143.65 250.932 152.71 241.872 152.71 230.721C152.71 219.57 143.65 210.509 132.499 210.509C121.348 210.509 112.288 219.57 112.288 230.721C112.288 241.851 121.369 250.932 132.499 250.932ZM132.499 219.443C138.708 219.443 143.777 224.491 143.777 230.721C143.777 236.93 138.729 241.978 132.499 241.978C126.29 241.978 121.242 236.93 121.242 230.721C121.242 224.491 126.29 219.443 132.499 219.443Z" fill="#E1E6EB"/>
<path d="M110.047 230.701H123.479C123.479 225.716 127.534 221.661 132.518 221.661V208.229C120.121 208.25 110.047 218.325 110.047 230.701Z" fill="#F9A21B"/>
<path d="M142.657 230.7H153.851C153.851 218.937 144.284 209.369 132.52 209.369V220.563C138.096 220.563 142.657 225.103 142.657 230.7Z" fill="#1F4168"/>
<path d="M130.09 256.973H111.167V259.74H130.09V256.973Z" fill="#E1E6EB"/>
<path d="M143.776 262.083H111.167V264.85H143.776V262.083Z" fill="#E1E6EB"/>
<path d="M171.295 208.271H161.58V213.023H171.295V208.271Z" fill="#1F4168"/>
<path d="M171.295 220.901H161.58V225.653H171.295V220.901Z" fill="#E1E6EB"/>
<path d="M171.295 233.531H161.58V238.282H171.295V233.531Z" fill="#1F4168"/>
<path d="M171.295 246.181H161.58V250.933H171.295V246.181Z" fill="#E1E6EB"/>
<path d="M311.791 178.165C320.501 169.455 320.501 155.334 311.791 146.625C303.082 137.916 288.961 137.916 280.252 146.625C271.542 155.334 271.542 169.455 280.252 178.165C288.961 186.874 303.082 186.874 311.791 178.165Z" fill="white"/>
<path d="M315.667 151.881L312.943 153.761C314.801 157.372 315.498 161.596 314.696 165.905C312.774 176.232 302.806 183.075 292.478 181.153C282.151 179.231 275.308 169.263 277.23 158.935C279.152 148.608 289.12 141.765 299.447 143.687C304.917 144.701 309.395 147.974 312.119 152.346L314.844 150.487C311.633 145.419 306.417 141.638 300.06 140.455C287.937 138.196 276.258 146.221 273.998 158.344C271.739 170.466 279.764 182.145 291.887 184.405C304.009 186.665 315.688 178.64 317.948 166.517C318.899 161.3 317.99 156.19 315.667 151.881Z" fill="#E1E6EB"/>
<path d="M292.879 178.936C283.755 177.247 277.715 168.44 279.426 159.316C281.115 150.193 289.922 144.152 299.046 145.863C303.692 146.729 307.789 149.538 310.281 153.593L309.859 153.846C307.43 149.918 303.46 147.194 298.94 146.349C290.091 144.701 281.537 150.552 279.89 159.422C278.243 168.271 284.093 176.824 292.963 178.472C301.812 180.119 310.366 174.269 312.013 165.399C312.647 161.935 312.182 158.45 310.64 155.282L311.084 155.071C312.668 158.324 313.153 161.935 312.499 165.483C310.809 174.586 302.002 180.626 292.879 178.936ZM293.491 175.705C286.163 174.332 281.305 167.257 282.657 159.929C284.03 152.6 291.105 147.743 298.433 149.094C302.235 149.812 305.572 152.114 307.557 155.451L307.134 155.705C305.213 152.495 302.002 150.256 298.328 149.58C291.252 148.271 284.431 152.938 283.121 160.013C281.812 167.088 286.479 173.91 293.555 175.219C300.63 176.529 307.451 171.861 308.761 164.786C309.246 162.188 308.93 159.57 307.874 157.162L308.317 156.972C309.415 159.464 309.732 162.21 309.225 164.892C307.895 172.199 300.82 177.057 293.491 175.705Z" fill="#1F4168"/>
<path d="M306.036 158.493L303.228 160.436C303.523 161.492 303.587 162.632 303.375 163.794C302.615 167.87 298.687 170.573 294.611 169.813C290.535 169.053 287.831 165.124 288.592 161.048C289.352 156.972 293.28 154.269 297.356 155.029C299.68 155.473 301.559 156.93 302.615 158.873L305.34 157.014C303.819 154.375 301.2 152.41 297.969 151.798C292.119 150.7 286.459 154.586 285.382 160.436C284.283 166.286 288.169 171.946 294.019 173.023C299.87 174.1 305.53 170.235 306.607 164.385C306.966 162.315 306.733 160.288 306.036 158.493Z" fill="#E1E6EB"/>
<path d="M300.969 161.955C300.927 161.364 300.758 160.793 300.505 160.265C299.85 158.85 298.519 157.752 296.872 157.435C294.148 156.928 291.508 158.724 291.001 161.448C290.494 164.172 292.289 166.812 295.014 167.319C297.738 167.826 300.378 166.031 300.885 163.307C300.99 162.842 301.012 162.398 300.969 161.955ZM295.647 164.109C294.697 163.94 294.084 163.032 294.253 162.082C294.422 161.131 295.33 160.519 296.281 160.688C297.231 160.857 297.844 161.765 297.675 162.715C297.506 163.645 296.598 164.278 295.647 164.109Z" fill="#1F4168"/>
<path d="M314.944 148.436L297.685 160.275L298.617 161.634L315.876 149.794L314.944 148.436Z" fill="#1F4168"/>
<path d="M313.704 149.768L316.745 143.073L323.06 138.722L321.961 144.636L327.854 145.734L321.539 150.064L314.189 150.486L313.704 149.768Z" fill="#1F4168"/>
<path d="M433.854 232.643L428.849 246.307L432.967 261.344C433.474 263.224 432.587 265.209 430.834 266.075C428.257 267.342 423.886 268.736 417.444 268.483L372.502 263.9L369.439 263.583L364.856 265.273C363.61 265.737 362.301 264.766 362.385 263.435C362.427 262.654 362.491 261.703 362.575 260.626C363.336 249.686 365.342 225.272 368.658 209.855L359.281 211.249C358.71 211.333 358.119 211.397 357.549 211.397L332.945 212.178C332.945 212.178 328.636 206.349 331.804 200.077L359.112 197.669L371.805 188.735C371.805 188.735 372.121 183.519 375.416 179.76C376.43 178.598 377.76 177.753 379.239 177.31L386.715 174.987L388.109 171.101L402.534 166.877C402.998 166.75 403.484 166.856 403.843 167.172L407.835 170.847L422.576 175.346C424.118 175.81 425.364 176.951 425.955 178.45C427.117 181.365 428.891 187.046 429.693 195.853C430.39 196.782 430.939 197.796 431.383 198.852C431.826 199.908 432.143 201.027 432.312 202.167C433.136 207.384 434.551 217.564 434.762 227.405C434.783 229.201 434.488 230.975 433.854 232.643Z" fill="#F9A21B"/>
<path d="M404.962 248.06L391.509 249.834C386.989 250.425 382.407 249.876 378.161 248.229L372.649 246.096L372.016 250.341C363.082 272.305 378.985 332.58 378.985 332.58L390.136 373.257L389.566 375.157C389.334 375.981 389.334 376.847 389.587 377.649L391.488 383.605C396.451 381.557 400.675 386.182 404.033 383.5L403.758 377.502L404.012 376.762C404.35 375.812 404.392 374.777 404.139 373.785L400.717 360.162L397.507 332.792C397.401 331.841 397.127 330.912 396.705 330.046L395.416 327.385L396.155 323.879C396.303 323.203 396.367 322.506 396.345 321.831L395.416 289.708L399.915 323.098C400.147 324.787 400.844 326.392 401.921 327.723L404.16 330.49C405.364 340.247 407.285 365.421 407.644 370.237C407.687 370.765 407.792 371.293 407.982 371.799L409.102 374.904C407.095 376.678 406.546 379.592 407.813 381.958L409.397 384.893C413.685 380.543 421.076 384.26 421.076 384.26L422.407 379.804C422.851 378.325 422.808 376.72 422.259 375.263L421.182 372.348C425.469 338.747 417.254 321.197 417.254 321.197L418.078 317.86C418.415 316.466 418.331 314.988 417.803 313.636L417.085 311.82L417.444 268.567C417.444 268.483 413.009 257.5 404.962 248.06Z" fill="#1B1A2E"/>
<path d="M404.962 248.06L399.597 248.947L390.178 250.489C387.306 250.953 384.37 250.658 381.646 249.602L372.628 246.117C372.628 246.117 373.494 238.683 375.986 233.445L375.669 218.662L375.458 209.285C375.458 209.285 377.274 198.577 380.695 188.292C380.695 188.271 380.695 188.271 380.695 188.271C382.343 183.35 384.328 178.513 386.693 175.008L388.087 171.122L400.527 164.532C400.886 164.342 401.308 164.469 401.519 164.828L402.829 167.13L393.705 196.043C391.403 203.329 390.727 210.911 391.551 218.26C392.755 228.905 397.147 239.127 404.434 247.427C404.603 247.638 404.793 247.849 404.962 248.06Z" fill="#3C7FCB"/>
<g opacity="0.4">
<path d="M388.171 179.633L386.186 193.128V237.184L382.638 243.182L381.877 238.071L382.49 206.096C382.596 201.069 383.208 196.064 384.327 191.164L386.819 180.372L386.672 178.239L388.171 179.633Z" fill="#1F4168"/>
</g>
<path d="M425.935 395.263V395.96C425.935 396.636 425.386 397.164 424.731 397.164L410.032 397.311C409.462 397.311 408.955 396.91 408.849 396.34C408.638 395.178 409.483 394.65 409.483 394.65C408.807 393.32 409.081 391.25 409.335 390.511C409.588 389.751 409.715 388.969 409.715 388.188V387.808C409.715 387.259 409.652 386.731 409.546 386.203C409.081 383.837 409.99 382.57 410.032 382.507C410.032 382.507 409.166 378.029 415.354 378.198C422.176 378.367 420.739 382.823 420.739 382.823C420.761 382.845 420.76 382.887 420.76 382.908C421.331 384.598 421.246 386.477 421.246 386.477C422.281 388.927 423.781 389.624 425.132 391.145C425.66 391.757 425.829 392.454 425.829 393.066C425.829 393.996 425.449 394.756 425.449 394.756C425.724 394.798 425.935 395.009 425.935 395.263Z" fill="#F9A21B"/>
<path d="M425.935 395.263V395.96C425.935 396.636 425.385 397.164 424.731 397.164L410.032 397.311C409.461 397.311 408.954 396.91 408.849 396.34C408.638 395.178 409.482 394.65 409.482 394.65C410.961 394.65 412.418 394.101 413.516 393.13L414.868 391.947C415.839 391.081 417.318 391.166 418.205 392.116L418.986 392.961C420.127 394.186 421.69 394.904 423.358 394.925C424.055 394.946 424.794 394.904 425.47 394.777C425.723 394.798 425.935 395.009 425.935 395.263Z" fill="#F0F2F5"/>
<path d="M413.495 392.264C411.51 392.264 410.053 391.292 409.377 389.434C409.335 389.286 409.398 389.138 409.525 389.096C409.673 389.054 409.821 389.117 409.863 389.244C410.94 392.158 413.728 391.884 415.312 391.461C416.093 391.25 416.917 391.229 417.74 391.377C422.239 392.179 424.372 390.405 424.393 390.384C424.499 390.279 424.668 390.3 424.773 390.405C424.879 390.511 424.858 390.68 424.752 390.785C424.668 390.87 422.429 392.771 417.656 391.905C416.917 391.778 416.178 391.799 415.459 391.989C414.763 392.179 414.108 392.264 413.495 392.264Z" fill="#F0F2F5"/>
<path d="M421.077 389.053C417.064 387.533 412.692 388.547 411.594 388.842C411.467 388.884 411.362 388.779 411.383 388.652C411.552 387.512 411.32 385.97 411.13 385.041C411.045 384.639 410.538 384.492 410.264 384.808C409.546 385.611 409.546 386.244 409.546 386.244C409.081 383.879 409.989 382.612 410.031 382.549C410.052 382.549 410.052 382.527 410.074 382.527C411.32 381.83 412.882 382.527 413.178 383.921C413.389 384.914 413.41 385.864 413.41 386.244C413.41 386.35 413.495 386.435 413.6 386.413C416.177 386.054 418.479 386.413 419.197 386.561C419.324 386.582 419.408 386.477 419.387 386.371C419.261 385.569 419.092 384.935 418.923 384.428C418.564 383.351 419.704 382.401 420.697 382.929C420.718 382.929 420.718 382.95 420.739 382.95C421.309 384.639 421.225 386.519 421.225 386.519C420.971 387.448 421.14 388.378 421.267 388.842C421.351 388.969 421.204 389.096 421.077 389.053Z" fill="#F0F2F5"/>
<path d="M412.629 383.351C412.524 383.351 412.46 383.288 412.439 383.267C412.334 383.161 412.355 382.992 412.46 382.887C412.482 382.865 412.503 382.865 412.524 382.844H412.545C413.2 382.443 415.586 381.176 418.374 382.063C418.522 382.105 418.585 382.253 418.543 382.401C418.501 382.549 418.353 382.612 418.205 382.57C415.649 381.767 413.432 382.929 412.819 383.309C412.735 383.33 412.693 383.351 412.629 383.351Z" fill="#F0F2F5"/>
<path d="M413.981 384.344C413.769 384.344 413.643 384.176 413.621 384.154C413.474 383.964 413.516 383.669 413.727 383.542C413.748 383.521 413.79 383.5 413.812 383.5C414.403 383.204 416.388 382.401 418.542 383.31C418.775 383.415 418.88 383.669 418.775 383.901C418.669 384.133 418.416 384.239 418.183 384.133C416.367 383.373 414.677 384.07 414.192 384.302C414.128 384.323 414.044 384.344 413.981 384.344Z" fill="#1F4168"/>
<path d="M413.98 385.316C413.769 385.316 413.642 385.147 413.621 385.126C413.473 384.936 413.515 384.64 413.727 384.513C413.748 384.492 413.79 384.471 413.811 384.471C414.402 384.176 416.388 383.373 418.542 384.281C418.774 384.387 418.88 384.64 418.774 384.872C418.669 385.105 418.415 385.21 418.183 385.105C416.367 384.345 414.677 385.041 414.191 385.274C414.128 385.295 414.043 385.316 413.98 385.316Z" fill="#1F4168"/>
<path d="M413.981 386.308C413.77 386.308 413.643 386.139 413.622 386.118C413.474 385.907 413.538 385.632 413.728 385.506C413.749 385.485 413.791 385.463 413.812 385.463C414.404 385.168 416.389 384.365 418.543 385.273C418.775 385.379 418.881 385.632 418.775 385.865C418.67 386.097 418.416 386.203 418.184 386.097C416.368 385.337 414.678 386.034 414.192 386.266C414.129 386.287 414.045 386.308 413.981 386.308Z" fill="#1F4168"/>
<path d="M403.399 387.238C404.032 387.766 404.096 389.667 404.032 391.124C404.011 391.694 403.906 392.264 403.737 392.814C403.568 393.363 403.335 393.891 403.04 394.376C403.335 394.82 403.462 395.327 403.504 395.813C403.589 396.826 402.638 397.608 401.667 397.333C401.266 397.228 400.822 397.101 400.294 396.995C399.302 396.784 398.626 397.059 398.203 397.354C397.76 397.671 397.211 397.861 396.662 397.84L393.346 397.755L385.257 397.544L384.412 397.523C383.884 397.502 383.462 397.059 383.483 396.531L383.525 395.453C383.525 395.453 382.617 394.038 383.23 392.454C383.842 390.871 386.672 389.92 386.672 389.92C386.609 389.878 385.785 389.392 387.2 388.167C388.657 386.879 391.382 383.077 392.248 382.676C393.029 382.317 393.536 382.887 393.641 383.014C393.261 381.684 394.043 379.804 394.909 379.381C397.802 378.03 403.652 381.071 404.032 382.74C404.412 384.387 403.082 384.535 403.082 384.535C404.37 385.337 403.42 387.175 403.399 387.238Z" fill="#F9A21B"/>
<path d="M397.909 395.748C397.845 395.748 397.803 395.748 397.74 395.748C397.592 395.748 397.486 395.622 397.486 395.474C397.486 395.326 397.613 395.221 397.761 395.221C399.176 395.284 400.253 394.186 400.527 393.109C400.781 392.116 400.401 391.271 399.514 390.828C398.5 390.321 397.043 391.039 395.522 391.799C393.516 392.792 391.256 393.932 389.25 392.665C389.123 392.581 389.081 392.412 389.165 392.306C389.25 392.179 389.418 392.137 389.524 392.222C391.277 393.32 393.326 392.306 395.29 391.335C396.937 390.511 398.5 389.729 399.767 390.363C400.886 390.933 401.393 392.031 401.055 393.278C400.739 394.46 399.535 395.748 397.909 395.748Z" fill="#F0F2F5"/>
<path d="M386.905 392.708C385.955 392.708 384.878 392.56 384.477 391.99C384.244 391.631 384.286 391.166 384.603 390.638C384.688 390.511 384.836 390.469 384.962 390.554C385.089 390.638 385.131 390.786 385.047 390.913C384.836 391.251 384.793 391.525 384.92 391.694C385.3 392.285 387.243 392.243 388.384 392.074C388.531 392.053 388.658 392.159 388.679 392.307C388.7 392.454 388.595 392.581 388.447 392.602C388.32 392.623 387.644 392.708 386.905 392.708Z" fill="#F0F2F5"/>
<path d="M403.399 387.238C403.399 387.238 401.941 384.408 399.534 386.14C397.126 387.871 396.387 390.364 393.916 389.688C391.023 388.885 388.108 389.096 386.651 389.899C386.587 389.857 385.764 389.371 387.179 388.146C388.636 386.858 391.361 383.056 392.226 382.655C393.008 382.296 393.515 382.866 393.62 382.993C392.311 383.732 389.143 387.871 389.143 387.871C392.142 386.984 395.289 388.062 395.289 388.062C395.289 388.062 397.717 384.788 399.597 383.542C401.477 382.296 403.061 384.535 403.061 384.535C404.37 385.337 403.42 387.175 403.399 387.238Z" fill="#F0F2F5"/>
<path d="M397.697 383.647C397.655 383.647 397.612 383.647 397.57 383.626C395.543 382.57 393.705 383.246 393.684 383.246C393.536 383.309 393.388 383.225 393.346 383.098C393.283 382.95 393.367 382.803 393.494 382.76C393.579 382.718 395.564 381.979 397.824 383.162C397.95 383.225 398.014 383.394 397.929 383.521C397.887 383.605 397.802 383.647 397.697 383.647Z" fill="#F0F2F5"/>
<path d="M395.351 387.639C395.287 387.639 395.203 387.618 395.139 387.596C392.816 386.393 390.768 387.153 390.747 387.174C390.514 387.259 390.261 387.153 390.176 386.921C390.092 386.688 390.197 386.435 390.43 386.35C390.535 386.308 392.88 385.442 395.541 386.815C395.752 386.921 395.836 387.195 395.731 387.428C395.667 387.533 395.52 387.639 395.351 387.639Z" fill="#1F4168"/>
<path d="M395.922 386.709C395.837 386.709 395.753 386.688 395.689 386.646C393.514 385.231 391.381 385.78 391.36 385.801C391.128 385.864 390.874 385.717 390.811 385.484C390.747 385.252 390.874 384.999 391.128 384.935C391.233 384.914 393.662 384.259 396.175 385.907C396.386 386.033 396.45 386.308 396.302 386.519C396.217 386.646 396.07 386.709 395.922 386.709Z" fill="#1F4168"/>
<path d="M396.999 385.506C396.915 385.506 396.83 385.484 396.767 385.442C394.528 384.091 392.438 384.703 392.416 384.703C392.184 384.766 391.931 384.64 391.867 384.407C391.804 384.175 391.931 383.922 392.163 383.858C392.269 383.837 394.676 383.119 397.232 384.682C397.443 384.809 397.506 385.083 397.38 385.294C397.295 385.442 397.147 385.506 396.999 385.506Z" fill="#1F4168"/>
<path d="M401.669 397.333C401.267 397.227 400.824 397.1 400.296 396.995C399.303 396.784 398.627 397.058 398.205 397.354C397.761 397.671 397.212 397.861 396.663 397.84L394.044 397.776C393.601 397.755 393.179 397.586 392.862 397.269L389.694 394.144C389.25 393.7 388.511 393.721 388.089 394.207L385.808 396.889C385.47 397.29 384.942 397.523 384.414 397.502C383.886 397.481 383.464 397.037 383.485 396.509L383.527 395.432C383.696 395.516 383.865 395.559 384.055 395.58C384.921 395.728 385.808 395.347 386.357 394.629L388.004 392.475C388.406 391.968 389.145 391.905 389.63 392.348L392.123 394.693C392.545 395.094 393.094 395.326 393.664 395.347C399.24 395.601 403.062 394.397 403.062 394.397C403.358 394.841 403.485 395.347 403.527 395.833C403.59 396.826 402.64 397.607 401.669 397.333Z" fill="#F0F2F5"/>
<path d="M370.388 154.944C370.388 154.944 370.916 158.534 372.226 159.949C373.535 161.364 374.169 160.435 374.169 160.435C374.169 160.435 370.98 158.048 370.6 154.775L370.388 154.944Z" fill="#1B1B2F"/>
<path d="M396.914 154.12L401.096 145.693C401.096 145.693 403.398 149.051 402.236 152.557C401.518 154.733 402.976 156.063 402.976 156.063C402.976 156.063 400.969 156.655 400.758 154.543C400.737 154.669 400.293 155.514 400.99 157.394C400.99 157.394 400.272 157.647 399.829 157.14C399.512 156.802 399.575 156.359 399.575 156.359C399.216 156.908 398.604 157.394 398.034 157.309L398.435 156.063C398.329 156.359 397.97 157.161 397.02 157.795C395.647 158.703 394.549 158.344 394.549 158.344L396.914 154.12Z" fill="#1B1B2F"/>
<path d="M382.892 161.364L387.137 173.804L388.806 174.311L400.717 164.701L397.761 156.296L382.892 161.364Z" fill="#FFC89F"/>
<path d="M391.551 170.023C397.021 168.164 399.936 162.209 398.077 156.739L393.938 144.637C392.079 139.167 386.124 136.253 380.654 138.111C375.184 139.97 372.269 145.926 374.128 151.396L378.267 163.497C380.147 168.967 386.081 171.882 391.551 170.023Z" fill="#FFC89F"/>
<path d="M385.955 170.34L386.63 172.346C386.63 172.346 389.524 171.206 391.34 169.221C391.34 169.221 389.524 170.72 385.955 170.34Z" fill="#FF9A6C"/>
<path d="M379.05 154.901C379.219 155.386 379.747 155.661 380.254 155.492C380.761 155.323 381.014 154.795 380.845 154.288C380.676 153.802 380.148 153.528 379.641 153.697C379.135 153.866 378.902 154.415 379.05 154.901Z" fill="#1B1B2F"/>
<path d="M377.467 154.499C377.572 154.352 377.678 154.225 377.804 154.098C377.868 154.035 377.931 153.971 377.995 153.908C378.058 153.845 378.121 153.803 378.185 153.739C378.459 153.528 378.755 153.359 379.093 153.253C379.177 153.211 379.262 153.211 379.346 153.19L379.473 153.169C379.515 153.169 379.557 153.148 379.6 153.148L379.853 153.106C379.938 153.106 380.022 153.106 380.106 153.106H380.233L380.36 153.127L380.613 153.148C380.782 153.169 380.951 153.211 381.141 153.232C380.972 153.169 380.803 153.127 380.634 153.084L380.381 153.042L380.254 153.021H380.128C380.043 153.021 379.959 153.021 379.853 153.021C379.769 153.021 379.684 153.042 379.579 153.042C379.536 153.042 379.494 153.042 379.452 153.063L379.325 153.084C379.241 153.106 379.156 153.127 379.072 153.148C378.734 153.253 378.417 153.444 378.142 153.676C377.847 153.887 377.614 154.183 377.467 154.499Z" fill="#1B1B2F"/>
<path d="M388.427 151.712C388.596 152.198 389.124 152.473 389.631 152.304C390.138 152.135 390.391 151.607 390.223 151.1C390.054 150.614 389.526 150.34 389.019 150.509C388.512 150.677 388.258 151.227 388.427 151.712Z" fill="#1B1B2F"/>
<path d="M386.822 151.311C386.928 151.163 387.033 151.036 387.16 150.91C387.224 150.846 387.287 150.783 387.35 150.72C387.414 150.656 387.477 150.614 387.54 150.551C387.815 150.339 388.111 150.17 388.448 150.065C388.533 150.023 388.617 150.023 388.702 150.001L388.829 149.98C388.871 149.98 388.913 149.959 388.955 149.959L389.209 149.917C389.293 149.917 389.378 149.917 389.462 149.917H389.589L389.716 149.938L389.969 149.959C390.138 149.98 390.307 150.023 390.497 150.044C390.328 149.98 390.159 149.938 389.99 149.896L389.737 149.854L389.61 149.833H389.483C389.399 149.833 389.314 149.833 389.209 149.833C389.124 149.833 389.04 149.854 388.934 149.854C388.892 149.854 388.85 149.854 388.808 149.875L388.681 149.896C388.596 149.917 388.512 149.938 388.427 149.959C388.089 150.065 387.773 150.255 387.498 150.487C387.202 150.698 386.97 150.994 386.822 151.311Z" fill="#1B1B2F"/>
<path d="M384.202 156.358C384.244 156.759 384.308 157.161 384.392 157.562C384.456 157.963 384.54 158.365 384.603 158.766C384.646 158.956 384.667 159.167 384.772 159.357C384.857 159.547 384.962 159.737 385.131 159.885C385.279 160.033 385.469 160.16 385.681 160.202C385.892 160.223 386.082 160.265 386.293 160.286C386.103 160.223 385.892 160.181 385.702 160.139C385.512 160.096 385.343 159.97 385.216 159.822C385.089 159.674 384.984 159.505 384.899 159.315C384.815 159.125 384.793 158.935 384.751 158.745C384.667 158.343 384.603 157.942 384.498 157.541C384.392 157.161 384.287 156.759 384.202 156.358Z" fill="#1B1B2F"/>
<path d="M386.062 162.377C386.358 162.715 386.759 162.905 387.203 162.947C387.646 163.011 388.153 162.884 388.554 162.567C388.956 162.272 389.209 161.828 389.294 161.406C389.336 161.194 389.357 160.962 389.315 160.751C389.294 160.54 389.23 160.329 389.103 160.138C388.956 160.329 388.829 160.476 388.702 160.624C388.681 160.645 388.681 160.645 388.66 160.666C388.554 160.793 388.47 160.899 388.385 161.004C388.174 161.237 387.984 161.427 387.794 161.575C387.688 161.659 387.604 161.722 387.477 161.786C387.414 161.828 387.351 161.849 387.308 161.891C387.245 161.912 387.182 161.955 387.097 161.976C386.949 162.039 386.78 162.103 386.611 162.166C386.569 162.187 386.527 162.208 386.464 162.208C386.358 162.25 386.21 162.314 386.062 162.377Z" fill="#E43F5A"/>
<path d="M386.612 162.166C386.696 162.208 386.802 162.23 386.886 162.251C387.267 162.314 387.71 162.208 388.048 161.955C388.386 161.702 388.597 161.321 388.66 160.962C388.682 160.878 388.682 160.793 388.682 160.709C388.576 160.836 388.491 160.941 388.407 161.047C388.196 161.279 388.006 161.469 387.816 161.617C387.71 161.702 387.626 161.765 387.499 161.828C387.435 161.871 387.372 161.892 387.33 161.934C387.267 161.955 387.203 161.997 387.119 162.018C386.971 162.04 386.802 162.103 386.612 162.166Z" fill="white"/>
<path d="M376.622 152.008C377.024 151.839 377.319 151.712 377.615 151.606C377.911 151.501 378.164 151.395 378.417 151.311C378.439 151.29 378.481 151.29 378.523 151.29L378.629 151.268C378.671 151.247 378.692 151.247 378.734 151.226C378.776 151.205 378.798 151.205 378.84 151.205C378.903 151.184 378.988 151.163 379.051 151.142C379.114 151.121 379.199 151.099 379.262 151.078C379.304 151.078 379.347 151.057 379.368 151.036C379.41 151.036 379.452 151.015 379.495 151.015C379.579 150.994 379.664 150.973 379.748 150.952C379.917 150.909 380.107 150.867 380.318 150.762C380.255 150.677 380.17 150.593 380.107 150.529C380.023 150.466 379.959 150.381 379.854 150.339C379.769 150.297 379.685 150.234 379.579 150.191C379.537 150.17 379.495 150.149 379.431 150.128C379.389 150.107 379.326 150.107 379.283 150.086C379.178 150.065 379.072 150.043 378.988 150.022C378.882 150.022 378.776 150.022 378.671 150.022C378.608 150.022 378.565 150.022 378.502 150.022L378.354 150.043C378.249 150.065 378.143 150.086 378.037 150.128C377.636 150.255 377.256 150.508 377.002 150.846C376.96 150.888 376.939 150.93 376.918 150.973C376.897 151.015 376.855 151.057 376.833 151.099C376.791 151.184 376.749 151.29 376.707 151.374C376.622 151.585 376.58 151.796 376.622 152.008Z" fill="#1B1B2F"/>
<path d="M385.977 148.818C386.378 148.649 386.674 148.523 386.97 148.417C387.265 148.311 387.519 148.206 387.772 148.121C387.793 148.1 387.836 148.1 387.878 148.1L387.983 148.079C388.026 148.058 388.047 148.058 388.089 148.037C388.131 148.016 388.152 148.016 388.195 148.016C388.258 147.995 388.342 147.973 388.406 147.952C388.469 147.931 388.554 147.91 388.617 147.889C388.659 147.889 388.701 147.868 388.723 147.847C388.765 147.847 388.807 147.826 388.849 147.826C388.934 147.805 389.018 147.783 389.103 147.762C389.272 147.72 389.462 147.678 389.673 147.572C389.61 147.488 389.525 147.403 389.462 147.34C389.377 147.277 389.314 147.192 389.208 147.15C389.124 147.108 389.039 147.044 388.934 147.002C388.892 146.981 388.849 146.96 388.786 146.939C388.744 146.917 388.68 146.917 388.638 146.896C388.532 146.875 388.427 146.854 388.342 146.833C388.237 146.833 388.131 146.833 388.026 146.833C387.962 146.833 387.92 146.833 387.857 146.833L387.709 146.854C387.603 146.875 387.498 146.896 387.392 146.939C386.991 147.065 386.611 147.319 386.357 147.657C386.315 147.699 386.294 147.741 386.273 147.783C386.252 147.826 386.209 147.868 386.188 147.91C386.146 147.995 386.104 148.1 386.062 148.185C385.977 148.375 385.935 148.586 385.977 148.818Z" fill="#1B1B2F"/>
<path d="M387.284 140.688C386.228 139.526 384.454 139.336 383.208 140.265C382.257 140.962 381.265 142.293 380.631 144.785C380.399 145.651 380.272 146.559 380.209 147.467C380.103 149.093 379.47 153.19 376.048 155.746L377.653 161.681L377.484 161.659C374.697 160.709 372.268 158.682 370.768 155.957C370.663 155.746 370.536 155.535 370.43 155.324C370.43 155.324 370.789 156.042 370.346 156.781C369.945 157.457 369.036 157.541 369.036 157.541C369.036 157.541 369.945 154.965 367.959 151.607C366.164 148.565 366.861 145.989 369.269 143.349C369.269 143.349 367.199 144.363 366.143 142.483C366.143 142.483 371.613 142.948 373.556 138.006C375.943 131.923 381.307 130.909 383.926 134.753C383.926 134.753 384.179 131.944 386.523 132.747C388.847 133.549 391.487 135.239 394.929 135.492C398.372 135.746 398.9 144.553 404.074 144.785C404.074 144.785 402.004 146.707 400.272 144.278C400.272 144.278 404.855 149.389 397.907 156.253L396.555 150.276C396.555 150.276 392.88 150.783 390.853 146.876C389.269 143.877 388.509 142.039 387.284 140.688Z" fill="#1B1B2F"/>
<path d="M383.947 134.753C384.01 134.31 384.137 133.887 384.306 133.486C384.475 133.106 384.728 132.747 385.066 132.557C385.235 132.451 385.404 132.388 385.594 132.346C385.784 132.303 385.974 132.303 386.186 132.325C386.587 132.346 387.009 132.451 387.432 132.578C388.276 132.831 389.079 133.275 389.797 133.803C390.156 134.078 390.494 134.373 390.874 134.648C391.275 134.901 391.719 135.091 392.184 135.176C392.648 135.281 393.113 135.302 393.556 135.345L393.894 135.366H394.232C394.464 135.366 394.697 135.366 394.908 135.366C395.14 135.366 395.351 135.345 395.542 135.366C395.753 135.387 395.943 135.408 396.133 135.471C396.323 135.535 396.492 135.619 396.64 135.725C396.788 135.83 396.914 135.978 397.041 136.126C397.273 136.443 397.442 136.844 397.59 137.267C397.738 137.689 397.844 138.111 397.991 138.555C398.118 138.998 398.266 139.421 398.456 139.843C398.646 140.266 398.878 140.667 399.174 141.005L399.216 140.963C398.773 140.181 398.583 139.315 398.393 138.428C398.308 137.985 398.224 137.541 398.097 137.098C397.97 136.654 397.822 136.189 397.548 135.767C397.4 135.556 397.231 135.366 397.02 135.197C396.809 135.028 396.576 134.901 396.323 134.838C396.07 134.753 395.816 134.711 395.584 134.69C395.33 134.669 395.077 134.69 394.866 134.69C393.979 134.732 393.092 134.774 392.226 134.69C392.12 134.69 392.015 134.669 391.909 134.648C391.803 134.627 391.698 134.606 391.592 134.584C391.381 134.521 391.191 134.458 390.98 134.373C390.578 134.204 390.219 133.909 389.86 133.655C389.48 133.402 389.121 133.148 388.741 132.895C388.361 132.641 387.981 132.388 387.558 132.177C387.136 131.966 386.692 131.797 386.186 131.775C385.932 131.754 385.679 131.775 385.425 131.839C385.172 131.902 384.939 132.008 384.728 132.156C384.517 132.303 384.348 132.515 384.221 132.726C384.095 132.937 383.989 133.169 383.926 133.402C383.862 133.634 383.82 133.866 383.799 134.099C383.778 134.331 383.799 134.563 383.82 134.796L383.947 134.753Z" fill="#1B1B2F"/>
<path d="M386.081 139.801C385.827 139.695 385.531 139.653 385.257 139.674C384.982 139.695 384.687 139.759 384.433 139.864C384.306 139.907 384.18 139.97 384.053 140.054C383.926 140.118 383.821 140.202 383.694 140.287C383.462 140.435 383.25 140.625 383.06 140.836C382.68 141.237 382.406 141.723 382.11 142.187C381.835 142.652 381.561 143.117 381.307 143.602C381.054 144.088 380.843 144.595 380.653 145.102C380.463 145.609 380.315 146.137 380.188 146.665C379.956 147.721 379.808 148.819 379.787 149.917H379.829C380.083 148.861 380.315 147.805 380.568 146.77L380.674 146.369L380.78 145.989C380.843 145.736 380.927 145.482 380.991 145.208C381.075 144.954 381.139 144.701 381.244 144.447L381.371 144.067L381.498 143.687C381.688 143.18 381.92 142.694 382.216 142.251C382.511 141.807 382.891 141.406 383.293 141.068C383.673 140.709 384.095 140.392 384.56 140.16C385.025 139.928 385.531 139.801 386.081 139.864V139.801Z" fill="#1B1B2F"/>
<path d="M396.724 150.17C396.027 150.339 395.331 150.445 394.655 150.424C394.317 150.424 393.958 150.382 393.62 150.339C393.282 150.276 392.944 150.192 392.627 150.065C392.31 149.938 391.994 149.79 391.719 149.6C391.423 149.41 391.17 149.178 390.938 148.924C390.473 148.396 390.135 147.763 389.903 147.108C389.671 146.453 389.523 145.756 389.396 145.081C389.269 144.384 389.121 143.666 388.868 142.99C388.615 142.314 388.277 141.659 387.833 141.089C387.728 140.941 387.601 140.815 387.474 140.688C387.347 140.561 387.221 140.434 387.073 140.329C386.925 140.223 386.777 140.118 386.608 140.033C386.439 139.949 386.291 139.885 386.101 139.843V139.885C386.418 140.033 386.693 140.244 386.946 140.477C387.2 140.709 387.411 140.983 387.601 141.279C387.981 141.849 388.277 142.483 388.509 143.138C388.741 143.792 388.931 144.468 389.079 145.165C389.227 145.862 389.459 146.559 389.755 147.214C390.051 147.868 390.431 148.481 390.874 149.051C391.318 149.6 391.867 150.107 392.543 150.424C392.881 150.572 393.24 150.677 393.599 150.741C393.958 150.804 394.317 150.825 394.697 150.804C395.415 150.762 396.133 150.593 396.788 150.276L396.724 150.17Z" fill="#1B1B2F"/>
<path d="M368.319 152.008C368.256 151.797 368.193 151.607 368.108 151.396C368.024 151.206 367.96 151.016 367.876 150.826C367.791 150.635 367.728 150.445 367.644 150.255C367.559 150.065 367.496 149.875 367.39 149.706C367.221 149.347 366.989 148.988 366.904 148.566C366.841 148.376 366.841 148.165 366.82 147.953C366.82 147.742 366.82 147.552 366.862 147.341C366.883 147.13 366.947 146.94 366.989 146.749C367.01 146.665 367.031 146.559 367.073 146.475L367.158 146.2C367.285 145.841 367.475 145.503 367.686 145.166C367.897 144.849 368.129 144.532 368.404 144.236C368.678 143.941 368.974 143.666 369.291 143.391L369.27 143.328C368.847 143.413 368.446 143.624 368.087 143.877C367.728 144.131 367.411 144.447 367.137 144.806C366.883 145.166 366.693 145.609 366.588 146.031C366.567 146.137 366.545 146.243 366.524 146.369C366.503 146.475 366.503 146.581 366.482 146.707C366.461 146.813 366.482 146.918 366.482 147.045C366.482 147.151 366.503 147.256 366.503 147.383C366.545 147.827 366.63 148.228 366.693 148.65C366.757 149.073 366.778 149.495 366.883 149.917C366.947 150.129 367.01 150.319 367.116 150.509C367.221 150.699 367.306 150.889 367.432 151.079C367.559 151.248 367.665 151.438 367.813 151.607C367.96 151.776 368.087 151.924 368.256 152.072L368.319 152.008Z" fill="#1B1B2F"/>
<path d="M398.921 155.999L398.414 156.168C397.4 156.506 396.281 155.978 395.943 154.964L394.824 151.67C394.486 150.656 395.014 149.537 396.028 149.199L396.535 149.03C397.548 148.692 398.668 149.22 399.006 150.234L400.125 153.528C400.484 154.542 399.935 155.661 398.921 155.999Z" fill="#FFC89F"/>
<path d="M396.093 150.403C396.283 150.382 396.473 150.361 396.642 150.361C396.832 150.382 397.001 150.403 397.17 150.466C397.339 150.53 397.486 150.614 397.634 150.72C397.782 150.825 397.909 150.931 398.014 151.079C398.12 151.205 398.204 151.374 398.268 151.522C398.331 151.691 398.395 151.86 398.479 152.05C398.627 152.388 398.754 152.747 398.944 153.085C398.88 152.705 398.775 152.346 398.669 151.987C398.627 151.797 398.564 151.628 398.5 151.438C398.437 151.248 398.331 151.079 398.204 150.91C397.951 150.593 397.613 150.361 397.212 150.276C397.022 150.234 396.832 150.213 396.621 150.234C396.452 150.276 396.261 150.318 396.093 150.403Z" fill="#FF9A6C"/>
<path d="M398.056 153.95C397.992 153.845 397.929 153.76 397.866 153.697L397.675 153.465L397.485 153.232C397.422 153.148 397.359 153.063 397.274 152.979C397.253 153.106 397.274 153.211 397.316 153.317C397.359 153.423 397.422 153.528 397.485 153.613C397.549 153.697 397.654 153.782 397.739 153.845C397.823 153.887 397.929 153.929 398.056 153.95Z" fill="#FF9A6C"/>
<path d="M400.209 144.194C400.4 144.532 400.611 144.849 400.801 145.165C400.906 145.313 401.012 145.482 401.118 145.63C401.223 145.778 401.329 145.926 401.456 146.074C401.688 146.369 401.962 146.644 402.153 146.961C402.343 147.299 402.448 147.658 402.49 148.038L402.533 148.312C402.533 148.397 402.554 148.502 402.554 148.587C402.554 148.671 402.575 148.777 402.575 148.861C402.596 148.946 402.596 149.051 402.596 149.136C402.617 149.326 402.596 149.495 402.617 149.685C402.596 149.854 402.617 150.044 402.596 150.213C402.575 150.931 402.427 151.628 402.279 152.409L402.343 152.431C402.406 152.367 402.469 152.283 402.533 152.198C402.596 152.114 402.659 152.029 402.702 151.945C402.744 151.86 402.807 151.776 402.849 151.691C402.892 151.607 402.934 151.501 402.976 151.417C403.061 151.227 403.124 151.037 403.166 150.847C403.208 150.657 403.251 150.445 403.272 150.255C403.293 150.044 403.293 149.854 403.293 149.643C403.272 149.453 403.251 149.242 403.208 149.051C403.187 148.946 403.166 148.861 403.145 148.756C403.124 148.65 403.103 148.566 403.061 148.46C403.018 148.376 402.997 148.27 402.955 148.186L402.828 147.911C402.659 147.552 402.49 147.214 402.343 146.855C402.195 146.496 402.089 146.116 401.92 145.757C401.836 145.588 401.73 145.419 401.603 145.271C401.477 145.123 401.35 144.975 401.223 144.828C400.949 144.553 400.653 144.3 400.294 144.109L400.209 144.194Z" fill="#1B1B2F"/>
<path d="M377.59 133.064C377.337 133.085 377.105 133.17 376.894 133.254C376.661 133.339 376.45 133.444 376.239 133.571C376.028 133.698 375.838 133.824 375.647 133.993L375.5 134.099C375.457 134.141 375.415 134.183 375.373 134.226C375.288 134.31 375.204 134.395 375.119 134.5C374.972 134.69 374.824 134.88 374.697 135.092C374.634 135.197 374.57 135.303 374.507 135.387C374.444 135.493 374.38 135.598 374.317 135.683C374.275 135.725 374.254 135.789 374.211 135.831L374.127 135.979C374.064 136.084 374 136.169 373.937 136.274C373.81 136.464 373.683 136.676 373.536 136.866C373.472 136.971 373.409 137.077 373.345 137.182C373.282 137.288 373.219 137.394 373.176 137.499C373.071 137.71 372.965 137.9 372.86 138.112C372.796 138.217 372.754 138.302 372.691 138.407C372.627 138.492 372.585 138.597 372.522 138.703C372.395 138.872 372.289 139.062 372.142 139.231L372.036 139.358C371.994 139.4 371.973 139.442 371.93 139.484L371.825 139.611L371.783 139.675L371.719 139.738C371.571 139.886 371.402 140.012 371.233 140.139C370.874 140.371 370.452 140.519 369.987 140.498L369.966 140.562C370.41 140.794 370.959 140.773 371.445 140.583C371.93 140.393 372.353 140.055 372.67 139.675C372.839 139.484 372.965 139.273 373.092 139.062C373.219 138.851 373.303 138.619 373.409 138.407C373.493 138.175 373.578 137.943 373.641 137.732C373.704 137.52 373.768 137.288 373.831 137.077C373.873 136.971 373.916 136.866 373.958 136.76C374 136.654 374.042 136.549 374.106 136.443C374.169 136.338 374.211 136.232 374.275 136.148C374.296 136.105 374.338 136.042 374.359 136C374.401 135.957 374.423 135.915 374.465 135.852C374.528 135.767 374.613 135.683 374.697 135.577C374.782 135.493 374.866 135.408 374.951 135.345C375.12 135.176 375.31 135.049 375.479 134.901C375.563 134.817 375.647 134.754 375.732 134.69C375.774 134.648 375.816 134.606 375.859 134.585C375.901 134.542 375.943 134.521 375.985 134.479C376.154 134.331 376.323 134.183 376.492 134.036C376.851 133.74 377.21 133.465 377.59 133.191V133.064Z" fill="#1B1B2F"/>
<path d="M368.086 143.624C368.783 143.645 369.48 143.497 370.135 143.265C370.79 143.033 371.402 142.695 371.951 142.251C372.226 142.04 372.479 141.786 372.69 141.533C372.817 141.406 372.902 141.258 373.028 141.132C373.134 140.984 373.24 140.857 373.324 140.688L373.451 140.456C373.493 140.371 373.535 140.308 373.578 140.224C373.662 140.076 373.725 139.907 373.81 139.759C373.873 139.611 373.937 139.442 374 139.273C374.063 139.104 374.105 138.935 374.169 138.787C373.937 139.442 373.641 140.055 373.261 140.625C373.218 140.688 373.176 140.773 373.113 140.836L372.965 141.047C372.859 141.174 372.754 141.322 372.627 141.449C372.395 141.702 372.162 141.934 371.888 142.145C371.36 142.589 370.769 142.927 370.114 143.18C369.797 143.307 369.459 143.413 369.121 143.476C368.762 143.56 368.424 143.603 368.086 143.624Z" fill="#1F4168"/>
<path d="M370.347 156.823C370.473 156.633 370.558 156.422 370.6 156.211C370.642 155.979 370.663 155.767 370.642 155.535C370.621 155.092 370.516 154.627 370.347 154.204C370.304 154.099 370.262 153.993 370.22 153.888L370.072 153.571C369.966 153.381 369.861 153.17 369.734 152.98C369.607 152.789 369.481 152.599 369.354 152.409C369.206 152.24 369.079 152.05 368.932 151.881C369.058 152.071 369.164 152.262 369.291 152.452C369.417 152.642 369.523 152.832 369.629 153.022C369.734 153.212 369.84 153.423 369.945 153.613L370.072 153.909C370.114 154.014 370.157 154.12 370.199 154.226L370.304 154.542L370.389 154.859C370.431 155.07 370.473 155.303 370.494 155.514C370.516 155.725 370.516 155.957 370.473 156.169C370.516 156.422 370.452 156.633 370.347 156.823Z" fill="#1F4168"/>
<path d="M378.309 153.339C378.182 153.55 378.034 153.761 377.865 153.972C377.717 154.183 377.548 154.373 377.379 154.564C377.042 154.944 376.682 155.324 376.281 155.641C375.88 155.957 375.458 156.253 374.993 156.464C374.528 156.697 374.043 156.844 373.536 156.929C373.789 156.908 374.043 156.866 374.296 156.802C374.549 156.739 374.803 156.654 375.035 156.549C375.267 156.443 375.5 156.316 375.732 156.19C375.943 156.042 376.154 155.894 376.366 155.746C376.767 155.408 377.126 155.049 377.464 154.648C377.781 154.247 378.076 153.803 378.309 153.339Z" fill="#1F4168"/>
<path d="M380.379 139.569C379.999 139.907 379.682 140.308 379.429 140.751C379.175 141.195 378.985 141.681 378.858 142.166C378.584 143.159 378.499 144.173 378.457 145.186C378.415 146.2 378.415 147.214 378.373 148.228C378.351 148.734 378.288 149.241 378.204 149.727C378.119 150.213 377.971 150.72 377.739 151.163C377.992 150.72 378.14 150.234 378.246 149.727C378.351 149.22 378.415 148.734 378.457 148.228C378.542 147.214 378.542 146.2 378.584 145.186C378.626 144.173 378.711 143.159 378.964 142.187C379.196 141.216 379.64 140.287 380.379 139.569Z" fill="#1F4168"/>
<path d="M380.378 139.568C380.568 139.421 380.758 139.273 380.948 139.104L381.244 138.893L381.392 138.787C381.434 138.745 381.497 138.724 381.54 138.703C381.645 138.639 381.751 138.597 381.856 138.534C381.92 138.512 381.962 138.47 382.025 138.449L382.194 138.386C382.3 138.343 382.427 138.28 382.532 138.259L382.891 138.175C383.356 138.069 383.863 138.048 384.327 138.132C384.813 138.217 385.257 138.407 385.679 138.681C385.489 138.512 385.278 138.386 385.066 138.28C384.961 138.238 384.834 138.175 384.729 138.132L384.56 138.069C384.496 138.048 384.433 138.048 384.37 138.027C383.884 137.921 383.377 137.921 382.891 138.027L382.532 138.132C382.405 138.175 382.3 138.217 382.194 138.259L382.025 138.322C381.962 138.343 381.92 138.386 381.856 138.407C381.751 138.47 381.645 138.534 381.54 138.597C381.476 138.618 381.434 138.66 381.392 138.703L381.244 138.808L380.948 139.019C380.737 139.231 380.547 139.399 380.378 139.568Z" fill="#1F4168"/>
<path d="M402.004 147.531C401.878 147.045 401.73 146.581 401.498 146.137C401.265 145.694 400.949 145.292 400.611 144.933C400.273 144.574 399.914 144.236 399.597 143.856C399.28 143.476 399.006 143.075 398.731 142.673C398.858 142.885 398.963 143.117 399.09 143.307C399.153 143.413 399.217 143.518 399.301 143.624C399.365 143.729 399.449 143.835 399.512 143.92C399.808 144.321 400.167 144.659 400.505 145.018C400.843 145.356 401.16 145.757 401.392 146.179C401.455 146.285 401.519 146.39 401.561 146.496C401.582 146.559 401.624 146.602 401.645 146.665L401.709 146.834C401.857 147.066 401.92 147.299 402.004 147.531Z" fill="#1F4168"/>
<path d="M397.907 148.566C397.527 148.524 397.147 148.439 396.788 148.355C396.429 148.249 396.07 148.122 395.711 147.974C395.014 147.679 394.338 147.32 393.747 146.855C393.451 146.623 393.155 146.39 392.881 146.116C392.606 145.862 392.353 145.567 392.121 145.271C391.635 144.68 391.234 144.046 390.875 143.37C390.959 143.539 391.043 143.708 391.128 143.877C391.212 144.046 391.297 144.215 391.403 144.384C391.508 144.553 391.593 144.701 391.719 144.87C391.825 145.039 391.931 145.187 392.057 145.334C392.29 145.63 392.543 145.926 392.818 146.2C393.092 146.475 393.388 146.728 393.683 146.961C394.296 147.425 394.972 147.805 395.69 148.08C396.387 148.333 397.126 148.524 397.907 148.566Z" fill="#1F4168"/>
<path d="M384.729 135.81C384.666 135.641 384.602 135.451 384.581 135.282C384.539 135.092 384.497 134.923 384.497 134.732C384.497 134.542 384.497 134.373 384.56 134.205C384.624 134.036 384.75 133.909 384.898 133.824C385.046 133.74 385.236 133.719 385.405 133.698C385.595 133.698 385.764 133.698 385.954 133.74L386.081 133.761L386.207 133.782C386.292 133.803 386.398 133.824 386.482 133.845C386.672 133.888 386.841 133.951 387.031 133.993C386.693 133.845 386.334 133.719 385.975 133.634C385.785 133.592 385.595 133.571 385.405 133.571C385.215 133.571 385.025 133.613 384.835 133.698C384.666 133.782 384.518 133.951 384.455 134.141C384.391 134.331 384.37 134.521 384.391 134.711C384.433 135.113 384.56 135.472 384.729 135.81Z" fill="#1F4168"/>
<path d="M384.623 136.823C384.095 136.211 383.356 135.788 382.575 135.577C381.793 135.366 380.948 135.366 380.146 135.492C379.343 135.64 378.562 135.936 377.886 136.379C377.21 136.823 376.598 137.393 376.175 138.09C376.408 137.752 376.682 137.457 376.978 137.182C377.274 136.907 377.59 136.675 377.949 136.464C378.625 136.042 379.385 135.746 380.188 135.619C380.589 135.556 380.991 135.514 381.392 135.514C381.793 135.514 382.194 135.577 382.575 135.661C382.955 135.767 383.335 135.894 383.694 136.105C384.011 136.295 384.349 136.527 384.623 136.823Z" fill="#1F4168"/>
<path d="M371.72 152.409C371.551 152.346 371.382 152.261 371.255 152.134C371.107 152.029 371.002 151.881 370.875 151.754C370.664 151.459 370.537 151.121 370.453 150.783C370.41 150.614 370.389 150.424 370.368 150.255C370.347 150.065 370.347 149.896 370.347 149.706C370.347 149.516 370.347 149.347 370.368 149.157C370.389 148.966 370.41 148.797 370.41 148.607C370.368 148.776 370.326 148.966 370.305 149.157C370.284 149.347 370.263 149.516 370.241 149.706C370.241 149.79 370.241 149.896 370.241 149.98C370.241 150.065 370.241 150.17 370.241 150.255C370.263 150.445 370.284 150.635 370.326 150.804C370.41 151.163 370.558 151.522 370.791 151.818C371.044 152.113 371.361 152.346 371.72 152.409Z" fill="#1F4168"/>
<path d="M372.966 152.156C372.671 152.282 372.333 152.303 372.058 152.177C371.91 152.113 371.805 152.008 371.699 151.902C371.636 151.839 371.594 151.775 371.551 151.712C371.509 151.649 371.467 151.585 371.425 151.501L371.319 151.543C371.446 151.818 371.573 152.113 371.72 152.388C371.636 152.092 371.53 151.797 371.425 151.501L371.319 151.543C371.361 151.606 371.404 151.691 371.446 151.754C371.488 151.818 371.551 151.881 371.594 151.944C371.72 152.071 371.847 152.177 372.016 152.24C372.185 152.303 372.354 152.325 372.523 152.303C372.565 152.303 372.607 152.282 372.65 152.282C372.692 152.261 372.734 152.261 372.776 152.24C372.84 152.24 372.903 152.219 372.966 152.156Z" fill="#1F4168"/>
<path d="M373.049 144.658C372.668 145.207 372.373 145.819 372.14 146.453C371.908 147.086 371.76 147.741 371.718 148.417C371.697 148.755 371.697 149.093 371.739 149.431C371.781 149.769 371.845 150.107 371.95 150.423C372.161 151.078 372.521 151.648 372.964 152.155C372.774 151.881 372.563 151.606 372.415 151.31C372.33 151.163 372.267 151.015 372.204 150.867C372.14 150.719 372.077 150.55 372.035 150.402C371.993 150.254 371.95 150.085 371.908 149.916C371.887 149.748 371.845 149.6 371.845 149.431C371.802 149.093 371.802 148.776 371.824 148.438C371.866 147.783 372.014 147.129 372.204 146.495C372.309 146.178 372.436 145.862 372.563 145.566C372.732 145.249 372.88 144.953 373.049 144.658Z" fill="#1F4168"/>
<path d="M378.541 143.497C378.477 143.983 378.393 144.468 378.287 144.954C378.182 145.44 378.076 145.904 377.97 146.39C377.717 147.341 377.442 148.27 377.062 149.178C376.872 149.621 376.682 150.065 376.429 150.509C376.196 150.931 375.922 151.353 375.626 151.733C375.33 152.114 374.993 152.473 374.591 152.768C374.211 153.064 373.768 153.317 373.303 153.465C373.768 153.339 374.232 153.106 374.612 152.811C375.014 152.515 375.373 152.177 375.668 151.797C376.281 151.037 376.745 150.149 377.126 149.241C377.316 148.777 377.485 148.312 377.632 147.847C377.78 147.383 377.907 146.897 378.013 146.432C378.266 145.44 378.456 144.468 378.541 143.497Z" fill="#1F4168"/>
<path d="M401.16 152.642C401.097 152.769 401.055 152.895 401.013 153.022C400.97 153.149 400.907 153.276 400.865 153.402C400.78 153.656 400.717 153.93 400.696 154.205C400.675 154.479 400.696 154.754 400.78 155.028C400.801 155.071 400.801 155.092 400.823 155.134L400.865 155.219C400.886 155.282 400.928 155.345 400.949 155.409C401.013 155.535 401.097 155.62 401.203 155.725C401.055 155.493 400.949 155.261 400.886 155.007C400.823 154.754 400.801 154.5 400.823 154.226C400.844 153.972 400.886 153.698 400.949 153.445C401.013 153.149 401.097 152.895 401.16 152.642Z" fill="#1F4168"/>
<path d="M396.957 140.244C397.063 140.793 397.189 141.343 397.358 141.871C397.443 142.145 397.506 142.399 397.591 142.673C397.675 142.948 397.76 143.201 397.865 143.455C398.245 144.511 398.689 145.545 399.217 146.517C399.724 147.509 400.4 148.418 400.885 149.41C401.118 149.917 401.308 150.445 401.371 150.994C401.392 151.269 401.392 151.543 401.35 151.818C401.308 152.092 401.244 152.367 401.16 152.62C401.35 152.092 401.498 151.543 401.434 150.973C401.392 150.403 401.202 149.875 400.97 149.368C400.737 148.861 400.463 148.375 400.146 147.89C399.998 147.657 399.85 147.425 399.703 147.172C399.555 146.939 399.428 146.686 399.301 146.454C398.773 145.482 398.309 144.447 397.929 143.412C397.527 142.399 397.189 141.321 396.957 140.244Z" fill="#1F4168"/>
<path d="M402.702 145.461C402.449 145.503 402.195 145.482 401.963 145.44C401.709 145.398 401.477 145.334 401.266 145.229C401.16 145.165 401.034 145.123 400.928 145.06C400.865 145.039 400.822 144.997 400.759 144.975L400.611 144.87C400.548 144.828 400.506 144.806 400.463 144.764L400.315 144.659C400.21 144.574 400.125 144.49 400.02 144.405C400.104 144.511 400.189 144.595 400.273 144.701C400.358 144.785 400.442 144.891 400.548 144.954C400.738 145.123 400.97 145.25 401.202 145.356C401.435 145.461 401.688 145.524 401.942 145.546C402.195 145.567 402.47 145.546 402.702 145.461Z" fill="#1F4168"/>
<path d="M390.092 138.83C390.367 138.978 390.641 139.125 390.916 139.273C391.043 139.337 391.191 139.421 391.317 139.506C391.444 139.59 391.592 139.653 391.718 139.738C392.246 140.076 392.753 140.414 393.197 140.836C393.661 141.237 394.063 141.702 394.401 142.23C394.739 142.737 394.992 143.307 395.203 143.898C395.161 143.751 395.119 143.603 395.077 143.455C395.013 143.307 394.971 143.159 394.908 143.011C394.844 142.864 394.781 142.737 394.717 142.589C394.633 142.462 394.57 142.314 394.485 142.188C394.168 141.66 393.746 141.174 393.281 140.752C392.817 140.329 392.31 139.97 391.761 139.674C391.233 139.358 390.663 139.083 390.092 138.83Z" fill="#1F4168"/>
<path d="M385.32 137.245C385.256 136.907 385.214 136.57 385.214 136.232C385.214 136.063 385.214 135.894 385.256 135.725C385.298 135.556 385.341 135.387 385.467 135.281C385.573 135.155 385.763 135.155 385.911 135.197C386.08 135.239 386.228 135.323 386.376 135.408C386.671 135.577 386.904 135.83 387.115 136.105C387.326 136.379 387.495 136.675 387.706 136.95C387.917 137.224 388.128 137.499 388.382 137.731C388.889 138.217 389.48 138.576 390.114 138.85C389.501 138.534 388.931 138.132 388.466 137.647C388.234 137.414 388.002 137.14 387.812 136.865C387.622 136.591 387.432 136.295 387.22 136.02C387.009 135.746 386.756 135.492 386.439 135.323C386.291 135.239 386.122 135.176 385.953 135.133C385.869 135.112 385.784 135.091 385.679 135.112C385.594 135.133 385.51 135.176 385.425 135.239C385.298 135.366 385.256 135.556 385.214 135.725C385.193 135.894 385.193 136.063 385.193 136.253C385.193 136.57 385.256 136.907 385.32 137.245Z" fill="#1F4168"/>
<path d="M390.051 133.993C390.177 134.183 390.367 134.352 390.557 134.5C390.642 134.563 390.747 134.627 390.853 134.69C390.959 134.753 391.064 134.817 391.17 134.859C391.592 135.07 392.057 135.197 392.522 135.281C392.754 135.324 392.986 135.345 393.218 135.387C393.451 135.408 393.683 135.408 393.915 135.429C394.148 135.429 394.38 135.429 394.612 135.408C394.845 135.387 395.077 135.366 395.309 135.345C395.077 135.345 394.845 135.345 394.612 135.345C394.38 135.345 394.148 135.345 393.915 135.324C393.683 135.303 393.451 135.303 393.218 135.26C392.986 135.218 392.754 135.218 392.522 135.155C392.057 135.07 391.613 134.944 391.191 134.775C391.085 134.732 390.98 134.669 390.874 134.627C390.769 134.563 390.663 134.521 390.579 134.458C390.388 134.31 390.198 134.162 390.051 133.993Z" fill="#1F4168"/>
<path d="M390.261 177.964L388.424 179.422L388.339 179.485L388.171 179.612L386.249 188.271L386.206 188.44L385.446 191.882V235.938L383.925 238.514L383.862 238.62L381.898 241.914L381.138 236.804L381.222 232.453V232.199L381.476 219.126V218.873L381.729 205.8V205.547L381.75 204.829C381.814 201.28 382.151 197.732 382.743 194.227C382.743 194.163 382.764 194.1 382.785 194.036C383.017 192.664 383.292 191.27 383.609 189.918L384.749 184.976L384.791 184.807L386.101 179.126L385.953 176.993L386.903 176.127L386.988 176.043L388.825 174.332L390.261 177.964Z" fill="#F9A21B"/>
<path d="M388.426 179.443L388.342 179.506L386.885 176.106L386.969 176.021L388.426 179.443Z" fill="white"/>
<path d="M386.251 188.291L386.208 188.46L384.73 184.976L384.772 184.807L386.251 188.291Z" fill="white"/>
<path d="M385.447 200.33V200.604L382.743 194.268C382.743 194.205 382.765 194.141 382.786 194.078L385.447 200.33Z" fill="white"/>
<path d="M385.446 214.247V214.522L381.729 205.821V205.567L385.446 214.247Z" fill="white"/>
<path d="M385.447 228.166V228.44L381.476 219.147V218.894L385.447 228.166Z" fill="white"/>
<path d="M383.926 238.535L383.842 238.641L381.223 232.474V232.22L383.926 238.535Z" fill="white"/>
<g opacity="0.4">
<path d="M376.007 233.424C373.494 238.641 372.649 246.096 372.649 246.096L372.015 250.341C370.579 253.889 369.776 258.451 369.46 263.583L364.877 265.273C363.631 265.737 362.321 264.766 362.406 263.435C362.448 262.654 362.511 261.703 362.596 260.626L364.687 245.399C365.236 241.26 366.714 237.184 368.319 233.319C372.67 222.865 375.479 209.264 375.479 209.264L376.007 233.424Z" fill="#A65B3C"/>
</g>
<g opacity="0.4">
<path d="M420.146 228.44C423.842 224.427 428.15 226.264 428.15 226.264L426.144 224.934C424.961 224.153 423.377 224.406 422.49 225.504L420.146 228.44Z" fill="#A65B3C"/>
</g>
<g opacity="0.4">
<path d="M368.657 209.854L361.35 210.932L362.934 209.981C365.51 208.418 367.432 205.947 368.319 203.054L370.706 195.134L368.657 209.854Z" fill="#A65B3C"/>
</g>
<g opacity="0.4">
<path d="M419.914 264.892C424.941 255.599 428.869 246.307 428.869 246.307L426.165 256.064C425.152 259.633 422.955 262.759 419.914 264.892Z" fill="#A65B3C"/>
</g>
<g opacity="0.4">
<path d="M404.961 248.06L399.596 248.947C392.711 233.614 391.592 219 391.55 218.303C392.754 228.947 397.146 239.169 404.433 247.469C404.602 247.638 404.792 247.849 404.961 248.06Z" fill="#1F4168"/>
</g>
<g opacity="0.4">
<path d="M414.613 197.605L417.759 235.747L418.773 230.7C418.773 230.7 418.858 229.791 420.146 228.419L419.47 227.447C419.47 227.447 419.132 226.814 419.28 226.222C419.428 225.631 419.829 225.103 419.829 225.103L418.182 222.632C418.182 222.632 417.464 221.597 417.252 219.422L414.613 197.605Z" fill="#A65B3C"/>
</g>
<g opacity="0.4">
<path d="M390.262 177.964L391.065 179.991C391.065 179.991 389.671 178.724 388.171 179.611L390.262 177.964Z" fill="#1F4168"/>
</g>
<g opacity="0.4">
<path d="M380.717 188.249C377.274 200.583 375.796 223.772 375.796 223.772L375.479 209.263C375.479 209.263 377.295 198.555 380.717 188.249Z" fill="#1F4168"/>
</g>
<g opacity="0.4">
<path d="M402.427 233.213C402.427 233.213 406.334 247.722 410.727 255.896L411.488 254.143L402.427 233.213Z" fill="#A65B3C"/>
</g>
<path d="M421.267 176.253C420.696 176.422 420.147 176.676 419.619 176.95C419.091 177.225 418.584 177.542 418.12 177.901C417.169 178.619 416.325 179.463 415.649 180.456C415.311 180.942 415.015 181.47 414.762 181.998C414.635 182.272 414.529 182.547 414.424 182.821L414.276 183.244C414.234 183.392 414.17 183.518 414.149 183.666C413.833 184.807 413.642 185.989 413.621 187.193C413.621 185.989 413.769 184.807 414.086 183.645C414.149 183.349 414.255 183.075 414.361 182.779C414.466 182.505 414.572 182.209 414.698 181.956C414.952 181.406 415.248 180.878 415.585 180.393C416.261 179.4 417.106 178.534 418.078 177.837C419.028 177.14 420.105 176.57 421.267 176.253Z" fill="#A65B3C"/>
<path d="M429.713 196.296C429.798 196.803 429.798 197.331 429.756 197.859C429.692 198.386 429.565 198.893 429.333 199.379C429.101 199.844 428.742 200.266 428.298 200.562C427.855 200.857 427.348 201.026 426.841 201.111C427.094 201.048 427.348 200.984 427.58 200.879C427.813 200.794 428.045 200.646 428.256 200.498C428.678 200.203 429.016 199.78 429.228 199.337C429.46 198.872 429.587 198.365 429.671 197.859C429.713 197.605 429.734 197.352 429.734 197.077C429.734 196.824 429.734 196.549 429.713 196.296Z" fill="#A65B3C"/>
<path d="M401.666 170.784C400.99 171.861 400.272 172.917 399.533 173.952C398.794 174.986 398.012 176 397.231 176.993C396.429 177.985 395.626 178.957 394.76 179.907C393.915 180.858 393.028 181.766 392.12 182.674C392.564 182.209 393.007 181.766 393.43 181.28L394.084 180.583L394.718 179.865C395.14 179.379 395.542 178.893 395.964 178.408C396.365 177.922 396.766 177.436 397.168 176.929C397.97 175.937 398.731 174.923 399.491 173.909C400.23 172.896 400.969 171.861 401.666 170.784Z" fill="#1B1A2E"/>
<path d="M376.069 234.079C376.112 234.396 376.154 234.713 376.217 235.051C376.281 235.367 376.344 235.684 376.428 236.001C376.597 236.635 376.787 237.247 377.041 237.838C377.294 238.43 377.59 239 377.949 239.549L378.224 239.95C378.308 240.077 378.435 240.204 378.54 240.331C378.73 240.584 378.984 240.795 379.216 241.027C378.709 240.605 378.266 240.14 377.886 239.591C377.527 239.042 377.21 238.472 376.956 237.881C376.703 237.268 376.513 236.656 376.365 236.022C376.217 235.389 376.112 234.734 376.069 234.079Z" fill="#1B1A2E"/>
<path d="M390.262 177.964C390.621 178.745 390.917 179.527 391.234 180.308C391.529 181.089 391.846 181.892 392.121 182.695C391.762 181.934 391.466 181.132 391.149 180.35C390.832 179.569 390.537 178.766 390.262 177.964Z" fill="#1B1A2E"/>
<path d="M420.147 228.44C419.936 228.693 419.724 228.926 419.534 229.179C419.344 229.433 419.175 229.707 419.049 230.003C418.774 230.573 418.689 231.228 418.563 231.861L417.824 235.642L416.345 243.181L413.557 249.538C412.628 251.65 411.678 253.783 410.749 255.895C411.657 253.762 412.565 251.629 413.494 249.517L416.261 243.139L417.76 235.599L418.521 231.84L418.711 230.89C418.774 230.573 418.88 230.277 419.027 229.982C419.154 229.686 419.323 229.411 419.534 229.158C419.703 228.905 419.936 228.672 420.147 228.44Z" fill="#A65B3C"/>
<path d="M419.809 225.103C419.661 225.378 419.471 225.631 419.386 225.927C419.302 226.223 419.26 226.518 419.302 226.814C419.344 227.11 419.45 227.405 419.619 227.659C419.788 227.912 419.978 228.166 420.126 228.44C419.936 228.208 419.724 227.955 419.555 227.701C419.365 227.448 419.239 227.152 419.196 226.835C419.154 226.518 419.196 226.202 419.302 225.906C419.365 225.758 419.429 225.61 419.513 225.484C419.619 225.357 419.703 225.23 419.809 225.103Z" fill="#A65B3C"/>
<path d="M413.747 190.424L414.296 194.838L414.845 199.252L415.922 208.08L416.957 216.908L417.21 219.105C417.295 219.844 417.337 220.583 417.569 221.28C417.781 221.998 418.14 222.653 418.562 223.244L419.787 225.103L418.541 223.265C418.119 222.674 417.738 221.998 417.527 221.301C417.295 220.583 417.253 219.844 417.147 219.105L416.873 216.908L415.795 208.08L414.761 199.252L414.233 194.838L413.747 190.424Z" fill="#A65B3C"/>
<path d="M426.629 216.001C426.08 216.761 425.51 217.542 424.961 218.303L423.271 220.584L421.561 222.843C420.99 223.604 420.399 224.343 419.829 225.103C420.378 224.343 420.948 223.561 421.497 222.801L423.187 220.52L424.898 218.26C425.468 217.5 426.038 216.74 426.629 216.001Z" fill="#A65B3C"/>
<path d="M428.129 226.265C427.791 226.138 427.432 226.053 427.073 225.99C426.883 225.969 426.714 225.927 426.524 225.927C426.334 225.927 426.165 225.884 425.975 225.906C425.257 225.884 424.517 225.969 423.821 226.18C423.652 226.222 423.483 226.286 423.293 226.349C423.124 226.412 422.955 226.476 422.786 226.56L422.3 226.793C422.152 226.877 421.983 226.983 421.835 227.067L421.603 227.215C421.519 227.257 421.455 227.321 421.392 227.384L420.948 227.722C420.864 227.764 420.8 227.827 420.737 227.891L420.547 228.081L420.146 228.461L420.526 228.06L420.716 227.87C420.779 227.806 420.843 227.743 420.927 227.68L421.35 227.321C421.413 227.257 421.497 227.194 421.561 227.152L421.793 227.004C421.941 226.898 422.11 226.793 422.258 226.708L422.743 226.455C422.912 226.37 423.081 226.307 423.25 226.243C423.419 226.18 423.588 226.117 423.778 226.075C424.496 225.863 425.236 225.8 425.975 225.821C426.714 225.842 427.453 225.99 428.129 226.265Z" fill="#A65B3C"/>
<path d="M375.478 209.263C375.034 211.439 374.527 213.593 373.978 215.726C373.429 217.88 372.859 220.013 372.225 222.125C371.592 224.237 370.916 226.349 370.177 228.44L369.902 229.221L369.607 230.003C369.416 230.531 369.226 231.038 369.036 231.566L368.424 233.107L367.811 234.649C366.988 236.698 366.249 238.788 365.678 240.921C365.383 241.999 365.129 243.076 364.939 244.153C364.749 245.251 364.622 246.349 364.474 247.447C364.179 249.644 363.862 251.84 363.545 254.037L362.616 260.605L363.482 254.016C363.778 251.819 364.052 249.623 364.369 247.426C364.517 246.328 364.665 245.23 364.855 244.132C365.045 243.033 365.298 241.956 365.594 240.879C366.185 238.746 366.945 236.655 367.769 234.607L368.403 233.065L369.015 231.523C369.226 231.016 369.416 230.488 369.607 229.96C369.797 229.454 369.987 228.926 370.156 228.398C370.895 226.307 371.55 224.195 372.162 222.062C372.774 219.929 373.366 217.796 373.936 215.663C374.464 213.572 374.992 211.417 375.478 209.263Z" fill="#A65B3C"/>
<path d="M368.656 209.855L368.952 207.194L369.29 204.554C369.522 202.78 369.754 201.027 370.008 199.274C370.261 197.521 370.557 195.768 370.853 193.994C371.001 193.107 371.148 192.241 371.317 191.375C371.486 190.509 371.655 189.622 371.824 188.756C371.676 189.622 371.507 190.509 371.36 191.375C371.212 192.241 371.064 193.128 370.916 194.015C370.641 195.768 370.367 197.521 370.114 199.295C369.86 201.048 369.607 202.822 369.353 204.575L368.656 209.855Z" fill="#A65B3C"/>
<path d="M358.603 198.133C358.392 198.323 358.202 198.535 358.012 198.746C357.822 198.957 357.653 199.189 357.484 199.422C357.167 199.886 356.914 200.393 356.766 200.942C356.618 201.491 356.597 202.062 356.724 202.611C356.787 202.885 356.871 203.16 357.019 203.413C357.146 203.667 357.294 203.899 357.463 204.131C357.104 203.688 356.787 203.181 356.66 202.632C356.512 202.083 356.534 201.47 356.681 200.921C356.829 200.372 357.104 199.844 357.442 199.379C357.758 198.915 358.139 198.492 358.603 198.133Z" fill="#A65B3C"/>
<path d="M385.363 175.915C384.244 176.76 383.294 177.837 382.428 178.914C381.562 180.013 380.78 181.195 380.084 182.42C378.69 184.87 377.613 187.468 376.768 190.15C375.923 192.832 375.332 195.599 374.888 198.365C374.424 201.132 374.001 203.92 373.579 206.708C372.755 212.283 371.931 217.838 370.706 223.35C370.559 224.026 370.411 224.723 370.242 225.42L369.735 227.468C369.566 228.144 369.376 228.82 369.186 229.517L368.911 230.531L368.616 231.544C367.855 234.248 366.926 236.909 365.997 239.57C367.855 234.269 369.418 228.841 370.601 223.35C371.826 217.859 372.649 212.283 373.494 206.729C373.917 203.941 374.339 201.174 374.825 198.387C375.289 195.62 375.839 192.853 376.683 190.15C377.106 188.798 377.57 187.489 378.119 186.18C378.669 184.891 379.302 183.624 379.999 182.399C380.717 181.174 381.477 180.013 382.364 178.914C382.808 178.365 383.273 177.837 383.758 177.33C384.286 176.802 384.793 176.317 385.363 175.915Z" fill="#A65B3C"/>
<path d="M404.835 181.027C404.962 180.795 405.004 180.52 404.92 180.267C404.877 180.14 404.814 180.034 404.729 179.929C404.645 179.823 404.539 179.739 404.455 179.654L403.314 178.535L402.195 177.394C401.815 177.014 401.456 176.634 401.097 176.233C401.498 176.592 401.878 176.951 402.258 177.331L403.399 178.45L404.518 179.591C404.603 179.696 404.708 179.781 404.793 179.886C404.877 179.992 404.941 180.119 404.962 180.246C405.025 180.52 404.983 180.816 404.835 181.027Z" fill="#A65B3C"/>
<path d="M392.628 224.469C392.416 223.54 392.29 222.568 392.205 221.618C392.121 220.667 392.078 219.696 392.057 218.745C392.036 216.824 392.142 214.902 392.353 212.98C392.797 209.157 393.641 205.377 394.761 201.702L395.183 200.329L395.648 198.956C395.795 198.492 395.964 198.048 396.133 197.605C396.302 197.161 396.471 196.697 396.661 196.253C397.042 195.366 397.379 194.479 397.802 193.592L398.393 192.283L399.027 190.994C399.872 189.263 400.801 187.573 401.751 185.905C402.237 185.081 402.744 184.257 403.251 183.434C403.758 182.631 404.307 181.829 404.814 181.005L403.272 183.455C402.786 184.278 402.279 185.102 401.793 185.926C400.843 187.594 399.935 189.284 399.09 191.016L398.457 192.304L397.865 193.613C397.464 194.479 397.105 195.387 396.725 196.253C396.028 198.048 395.331 199.844 394.782 201.681C394.634 202.146 394.507 202.589 394.359 203.054C394.233 203.518 394.085 203.983 393.979 204.448L393.62 205.841L393.303 207.256C392.902 209.136 392.606 211.037 392.395 212.938C392.332 213.423 392.29 213.888 392.269 214.374C392.226 214.86 392.205 215.324 392.163 215.81C392.121 216.296 392.121 216.76 392.1 217.246C392.1 217.732 392.078 218.196 392.078 218.682C392.078 219.633 392.121 220.604 392.205 221.554C392.332 222.568 392.437 223.54 392.628 224.469Z" fill="#A65B3C"/>
<path d="M407.664 171.481C407.495 172.262 407.326 173.023 407.157 173.804L406.63 176.106L406.355 177.268C406.313 177.458 406.228 177.669 406.08 177.817C405.933 177.965 405.742 178.07 405.552 178.113C404.771 178.218 403.968 178.281 403.187 178.345L405.531 178.028C405.911 177.944 406.186 177.627 406.249 177.247L406.524 176.085L407.073 173.783C407.263 173.002 407.453 172.241 407.664 171.481Z" fill="#A65B3C"/>
<path d="M402.427 233.213C402.702 234.185 402.997 235.156 403.293 236.107C403.589 237.078 403.885 238.028 404.18 239C404.793 240.922 405.426 242.844 406.102 244.723C406.778 246.624 407.454 248.525 408.235 250.383C408.425 250.848 408.636 251.313 408.826 251.777L409.122 252.474L409.439 253.171C409.65 253.636 409.84 254.1 410.073 254.544L410.748 255.896C409.777 254.122 408.953 252.284 408.172 250.426C407.39 248.567 406.693 246.666 406.018 244.787C405.342 242.886 404.729 240.964 404.138 239.042C403.504 237.099 402.934 235.156 402.427 233.213Z" fill="#A65B3C"/>
<path d="M428.848 246.307C428.51 247.11 428.172 247.891 427.834 248.672L426.778 251.038C426.06 252.601 425.342 254.163 424.603 255.726C423.863 257.268 423.082 258.81 422.301 260.352C421.519 261.893 420.717 263.393 419.872 264.913C420.273 264.153 420.674 263.393 421.055 262.632C421.456 261.872 421.836 261.112 422.237 260.33C423.019 258.789 423.758 257.247 424.497 255.705C425.257 254.163 425.975 252.601 426.693 251.038L427.771 248.694C428.151 247.87 428.51 247.088 428.848 246.307Z" fill="#A65B3C"/>
<path d="M385.995 254.565C385.932 255.325 385.911 256.064 385.89 256.824C385.869 257.585 385.848 258.345 385.848 259.084C385.848 260.605 385.89 262.104 385.995 263.604C386.101 265.103 386.249 266.624 386.502 268.102C386.566 268.482 386.65 268.841 386.713 269.222C386.756 269.412 386.777 269.602 386.819 269.771L386.946 270.32L387.072 270.869L387.136 271.143L387.22 271.418L387.558 272.495L387.199 271.418L387.115 271.143L387.051 270.869L386.904 270.32L386.756 269.771C386.713 269.581 386.671 269.391 386.629 269.222C386.566 268.841 386.481 268.482 386.418 268.102C386.164 266.603 385.995 265.103 385.89 263.604C385.805 262.083 385.763 260.584 385.784 259.063C385.784 257.585 385.848 256.064 385.995 254.565Z" fill="#1F4168"/>
<path d="M373.03 250.679C374.36 251.228 375.712 251.692 377.063 252.136C378.436 252.579 379.809 252.981 381.182 253.34C382.576 253.699 383.969 254.037 385.363 254.29C386.778 254.522 388.215 254.565 389.63 254.459C390.348 254.396 391.045 254.311 391.763 254.227C392.481 254.142 393.178 254.037 393.896 253.952C395.311 253.762 396.726 253.551 398.141 253.298C399.556 253.065 400.971 252.812 402.365 252.516C403.759 252.242 405.174 251.925 406.546 251.566C403.78 252.326 400.971 252.896 398.141 253.382C396.726 253.614 395.311 253.847 393.896 254.058C393.178 254.163 392.481 254.248 391.763 254.353C391.045 254.438 390.348 254.544 389.63 254.607C388.193 254.713 386.757 254.649 385.342 254.417C383.927 254.163 382.533 253.826 381.161 253.445C378.415 252.685 375.669 251.798 373.03 250.679Z" fill="#1F4168"/>
<path d="M389.312 255.6C389.312 256.233 389.333 256.846 389.333 257.479C389.354 258.113 389.375 258.726 389.396 259.359C389.459 260.605 389.523 261.872 389.628 263.118C389.734 264.364 389.882 265.611 390.03 266.857C390.114 267.469 390.199 268.103 390.325 268.715C390.431 269.328 390.558 269.94 390.684 270.553C390.389 269.328 390.135 268.103 389.945 266.857C389.755 265.611 389.628 264.364 389.502 263.118C389.396 261.872 389.333 260.605 389.29 259.359C389.29 258.113 389.269 256.846 389.312 255.6Z" fill="#1F4168"/>
<path d="M416.05 372.032C415.417 372.074 414.804 372.18 414.192 372.349C413.579 372.496 412.967 372.686 412.396 372.94C411.805 373.172 411.235 373.447 410.707 373.785C410.158 374.101 409.651 374.46 409.144 374.841C409.397 374.651 409.63 374.439 409.883 374.249C410.137 374.059 410.39 373.869 410.665 373.721C411.193 373.383 411.784 373.109 412.354 372.855C412.946 372.623 413.558 372.433 414.171 372.285C414.783 372.116 415.417 372.032 416.05 372.032Z" fill="#1F4168"/>
<path d="M403.589 376.403C403.504 376.065 403.335 375.728 403.145 375.453C402.955 375.157 402.702 374.904 402.427 374.693C402.152 374.481 401.836 374.313 401.498 374.186C401.329 374.122 401.16 374.08 400.991 374.017C400.822 373.975 400.632 373.953 400.463 373.911C400.632 373.932 400.822 373.953 400.991 373.975C401.16 374.017 401.35 374.038 401.519 374.101L401.772 374.186C401.857 374.228 401.941 374.27 402.026 374.313C402.195 374.376 402.342 374.503 402.49 374.587C402.786 374.819 403.039 375.073 403.23 375.39C403.398 375.706 403.525 376.044 403.589 376.403Z" fill="#1F4168"/>
<path d="M414.001 316.424C414.381 316.382 414.761 316.276 415.12 316.107C415.458 315.938 415.796 315.727 416.028 315.432C416.282 315.136 416.493 314.819 416.62 314.46C416.662 314.376 416.683 314.291 416.725 314.185L416.81 313.911C416.852 313.721 416.894 313.531 416.937 313.341C416.916 313.531 416.894 313.721 416.873 313.932L416.81 314.207C416.789 314.312 416.768 314.397 416.725 314.481L416.62 314.756C416.578 314.84 416.514 314.925 416.472 315.009L416.409 315.136L416.324 315.263C416.261 315.347 416.219 315.432 416.134 315.495C415.86 315.791 415.543 316.023 415.163 316.171C414.782 316.34 414.402 316.445 414.001 316.424Z" fill="#1F4168"/>
<path d="M404.582 330.806C405.153 331.355 405.723 331.904 406.293 332.474L407.982 334.164L409.651 335.875C410.2 336.445 410.749 337.015 411.298 337.607C410.728 337.057 410.158 336.508 409.588 335.938L407.898 334.249L406.23 332.538C405.659 331.947 405.11 331.376 404.582 330.806Z" fill="#1F4168"/>
<path d="M395.437 327.343C395.31 327.976 395.162 328.61 395.014 329.244L394.55 331.144L394.064 333.045C393.895 333.679 393.726 334.312 393.557 334.925C393.684 334.291 393.832 333.658 393.98 333.024L394.444 331.123L394.93 329.223C395.078 328.61 395.247 327.976 395.437 327.343Z" fill="#1F4168"/>
<path d="M392.966 365.104C392.755 365.78 392.523 366.477 392.29 367.153L391.593 369.202L390.875 371.229C390.643 371.905 390.389 372.581 390.136 373.257C390.347 372.581 390.58 371.884 390.812 371.208L391.509 369.159L392.227 367.132C392.48 366.456 392.713 365.78 392.966 365.104Z" fill="#1F4168"/>
<path d="M382.703 272.221C383.759 272.686 384.815 273.171 385.871 273.636L389.039 275.093L392.185 276.572C393.241 277.057 394.276 277.564 395.332 278.071C394.276 277.606 393.22 277.121 392.164 276.656L388.996 275.199L385.849 273.72C384.772 273.235 383.737 272.728 382.703 272.221Z" fill="#1F4168"/>
<path d="M395.669 291.44L394.866 289.433L394.064 287.427L392.48 283.393L390.938 279.359L390.157 277.353L389.396 275.325L390.199 277.332L391.002 279.338L392.586 283.372L394.127 287.406L394.909 289.412L395.669 291.44Z" fill="#1F4168"/>
<path d="M410.579 199.317H400.019V201.112H410.579V199.317Z" fill="white"/>
<path d="M331.106 208.862C331.106 208.862 328.656 204.511 330.578 200.098L329.247 199.781C327.938 199.02 326.438 198.619 324.939 198.619H323.355C322.785 198.619 322.236 198.682 321.686 198.788L320.778 198.978L319.912 199.105C319.448 199.168 319.131 199.591 319.173 200.055C319.216 200.52 319.638 200.879 320.103 200.837L320.884 200.794L322.447 201.09L320.631 201.977C320.356 202.104 320.103 202.294 319.912 202.547L319.194 203.434L317.8 203.836C317.146 204.026 316.935 204.849 317.42 205.314C317.779 205.652 318.35 205.905 319.237 205.694L319.258 205.779C319.342 206.286 319.765 206.666 320.271 206.729L320.609 206.771V206.856C320.588 207.194 320.673 207.532 320.884 207.827C321.137 208.186 321.539 208.397 321.961 208.44H321.982L321.94 209.01C321.919 209.411 322.067 209.812 322.341 210.087C322.574 210.319 322.911 210.467 323.249 210.488L324.179 210.531C324.833 210.573 325.488 210.425 326.079 210.108L326.607 209.834C326.565 209.834 329.416 210.129 331.106 208.862Z" fill="#FFC89F"/>
<path d="M322.447 201.09C322.827 200.858 323.207 200.647 323.587 200.435C323.777 200.33 323.967 200.224 324.157 200.119C324.348 200.013 324.559 199.929 324.749 199.844C324.96 199.781 325.171 199.717 325.382 199.696C325.594 199.675 325.826 199.654 326.037 199.633C326.481 199.612 326.903 199.57 327.347 199.57C326.924 199.633 326.481 199.675 326.058 199.717C325.847 199.739 325.615 199.76 325.404 199.781C325.192 199.823 324.981 199.865 324.77 199.929C324.369 200.055 323.989 200.288 323.608 200.478C323.228 200.689 322.827 200.9 322.447 201.09Z" fill="#FF9A6C"/>
<path d="M324.116 203.202C324.412 203.54 324.75 203.835 325.088 204.11C325.447 204.385 325.806 204.638 326.207 204.828C326.608 205.039 327.01 205.208 327.432 205.356C327.854 205.504 328.298 205.588 328.741 205.673C328.53 205.652 328.298 205.631 328.066 205.588C327.854 205.546 327.622 205.504 327.411 205.441C326.967 205.314 326.566 205.145 326.165 204.934C325.764 204.723 325.383 204.469 325.045 204.173C324.877 204.026 324.708 203.878 324.56 203.709C324.412 203.561 324.264 203.392 324.116 203.202Z" fill="#FF9A6C"/>
<path d="M319.215 205.673C319.448 205.61 319.68 205.546 319.912 205.441C320.145 205.356 320.356 205.251 320.567 205.124C320.778 204.997 320.989 204.892 321.179 204.744C321.37 204.596 321.56 204.448 321.729 204.279C322.13 204.089 322.51 203.899 322.911 203.73C323.313 203.54 323.714 203.371 324.115 203.202C323.735 203.413 323.334 203.603 322.953 203.793C322.552 203.983 322.172 204.174 321.771 204.364H321.792C321.623 204.533 321.433 204.702 321.222 204.828C321.032 204.976 320.82 205.103 320.588 205.208C320.166 205.441 319.701 205.61 319.215 205.673Z" fill="#FF9A6C"/>
<path d="M321.92 208.44C322.004 208.313 322.11 208.207 322.194 208.081C322.3 207.975 322.406 207.869 322.532 207.785C322.807 207.637 323.145 207.616 323.419 207.722C323.715 207.827 323.947 208.081 324.032 208.376C324.116 208.672 324.137 208.968 324.095 209.263C324.095 208.968 324.053 208.672 323.947 208.397C323.842 208.144 323.631 207.912 323.356 207.827C323.103 207.722 322.786 207.743 322.532 207.848C322.321 207.975 322.131 208.228 321.92 208.44Z" fill="#FF9A6C"/>
<path d="M324.306 203.625C324.369 204.132 324.475 204.638 324.602 205.145C324.728 205.652 324.876 206.138 325.066 206.624C325.235 207.109 325.446 207.574 325.679 208.039C325.911 208.503 326.164 208.947 326.439 209.369C326.143 208.947 325.848 208.524 325.594 208.06C325.341 207.616 325.13 207.131 324.961 206.645C324.792 206.159 324.623 205.673 324.517 205.166C324.412 204.66 324.327 204.132 324.306 203.625Z" fill="#FF9A6C"/>
<path d="M320.589 206.772C320.822 206.582 321.075 206.371 321.329 206.202C321.603 206.012 321.962 205.99 322.258 206.096C322.575 206.202 322.807 206.476 322.891 206.793C322.976 207.11 322.955 207.427 322.913 207.722C322.934 207.405 322.912 207.089 322.828 206.814C322.744 206.518 322.532 206.286 322.237 206.181C321.962 206.075 321.645 206.096 321.371 206.265C321.096 206.413 320.843 206.603 320.589 206.772Z" fill="#FF9A6C"/>
<path d="M321.16 206.349C321.265 206.116 321.307 205.863 321.265 205.631C321.244 205.525 321.202 205.398 321.138 205.293C321.075 205.187 321.012 205.081 320.927 204.976C320.969 205.018 321.033 205.06 321.075 205.103C321.117 205.145 321.16 205.187 321.202 205.25C321.286 205.356 321.329 205.483 321.371 205.609C321.413 205.863 321.35 206.159 321.16 206.349Z" fill="#FF9A6C"/>
<path d="M323.904 208.144C324.179 208.102 324.432 208.039 324.685 207.912C324.812 207.849 324.918 207.785 325.045 207.722C325.15 207.659 325.256 207.574 325.382 207.49C325.298 207.595 325.213 207.701 325.087 207.806C324.981 207.891 324.854 207.975 324.728 208.039C324.601 208.102 324.453 208.144 324.326 208.165C324.179 208.165 324.031 208.187 323.904 208.144Z" fill="#FF9A6C"/>
<path d="M322.068 206.075C322.49 205.969 322.934 205.842 323.335 205.694C323.546 205.631 323.757 205.547 323.948 205.462C324.159 205.378 324.349 205.293 324.56 205.188C324.201 205.462 323.8 205.652 323.377 205.8C323.166 205.863 322.955 205.927 322.723 205.969C322.511 206.011 322.3 206.053 322.068 206.075Z" fill="#FF9A6C"/>
<path d="M330.599 200.098H331.803C331.803 200.098 329.733 202.906 331.381 208.757L331.127 208.862C331.106 208.862 328.635 204.047 330.599 200.098Z" fill="#3C7FCB"/>
<path d="M413.029 256.74C413.029 256.74 416.789 259.739 419.112 263.35L418.183 265.505C418.183 265.505 416.134 262.928 410.749 260.837L413.029 256.74Z" fill="#3C7FCB"/>
<path d="M416.43 271.672C416.43 271.672 415.944 267.638 410.749 260.816C410.749 260.816 414.803 262.041 417.866 265.146C417.866 265.167 417.676 269.285 416.43 271.672Z" fill="#FFC89F"/>
<path d="M419.532 146.601C416.934 143.729 412.499 143.518 409.627 146.115C407.473 148.079 406.797 151.057 407.726 153.655L405.424 155.83L409.141 156.02C411.739 158.893 416.174 159.104 419.046 156.506C421.918 153.908 422.13 149.473 419.532 146.601Z" fill="white"/>
<path d="M405.426 155.831C405.616 155.641 405.806 155.451 405.996 155.261C406.186 155.071 406.376 154.902 406.566 154.712C406.756 154.521 406.946 154.352 407.157 154.162C407.347 153.993 407.559 153.803 407.749 153.634C407.559 153.824 407.368 154.015 407.178 154.205C406.988 154.395 406.798 154.564 406.608 154.754C406.418 154.944 406.228 155.113 406.017 155.303C405.827 155.472 405.637 155.662 405.426 155.831Z" fill="#1F4068"/>
<path d="M409.143 156.021C408.826 156.021 408.53 156.021 408.213 156C407.897 156 407.601 155.979 407.284 155.957C406.967 155.936 406.672 155.915 406.355 155.894C406.038 155.873 405.742 155.852 405.426 155.831C405.742 155.831 406.038 155.831 406.355 155.852C406.672 155.852 406.967 155.873 407.284 155.894C407.601 155.915 407.897 155.936 408.213 155.957C408.53 155.957 408.847 155.979 409.143 156.021Z" fill="#1F4068"/>
<path d="M407.727 153.656C407.579 153.254 407.474 152.832 407.41 152.41C407.347 151.987 407.305 151.544 407.326 151.121C407.347 150.255 407.516 149.411 407.854 148.608C408.192 147.806 408.656 147.066 409.269 146.454C409.86 145.841 410.578 145.313 411.36 144.954C411.761 144.764 412.162 144.616 412.585 144.511C413.007 144.405 413.429 144.342 413.873 144.3C414.739 144.236 415.605 144.342 416.428 144.595C417.252 144.849 418.033 145.25 418.709 145.778C419.047 146.053 419.364 146.348 419.66 146.665C419.955 146.982 420.209 147.341 420.42 147.721C420.863 148.46 421.159 149.284 421.307 150.15C421.455 150.995 421.434 151.882 421.265 152.726C421.096 153.571 420.758 154.395 420.293 155.113C419.829 155.852 419.237 156.486 418.54 156.993C417.843 157.499 417.062 157.88 416.217 158.112C415.393 158.344 414.506 158.408 413.662 158.323C412.796 158.239 411.972 157.985 411.191 157.584C410.43 157.183 409.733 156.655 409.163 156.021C409.755 156.655 410.43 157.183 411.212 157.563C411.972 157.943 412.817 158.196 413.662 158.26C414.506 158.344 415.372 158.26 416.217 158.027C417.041 157.795 417.822 157.415 418.519 156.908C418.857 156.655 419.174 156.359 419.47 156.042C419.765 155.725 420.019 155.387 420.251 155.028C420.716 154.31 421.032 153.508 421.201 152.663C421.37 151.818 421.37 150.952 421.244 150.108C421.096 149.263 420.8 148.46 420.357 147.721C420.145 147.362 419.892 147.003 419.596 146.686C419.322 146.369 419.005 146.074 418.667 145.799C417.991 145.271 417.231 144.87 416.407 144.616C415.584 144.363 414.718 144.279 413.873 144.321C413.028 144.384 412.183 144.595 411.402 144.954C410.62 145.313 409.924 145.82 409.332 146.433C408.741 147.045 408.255 147.784 407.917 148.566C407.579 149.347 407.389 150.213 407.368 151.058C407.347 151.48 407.389 151.924 407.452 152.346C407.495 152.832 407.6 153.233 407.727 153.656Z" fill="#1F4068"/>
<path d="M413.619 153.254L411.887 151.628L412.394 151.1L413.598 152.219L416.154 149.495L416.682 150.001L413.619 153.254Z" fill="#1F4068"/>
</g>
<defs>
<clipPath id="clip0_5217_12743">
<rect width="431.3" height="353.696" fill="white" transform="translate(5 43)"/>
</clipPath>
</defs>
<script xmlns=""/></svg>